<svg  viewBox="0 0 42 42" fill="none" xmlns="http://www.w3.org/2000/svg">
<path d="M25.8617 17.6398C25.1831 16.9971 24.7465 16.1402 24.6254 15.2134L23.9949 10.3899L19.722 12.715C18.901 13.1618 17.9512 13.3122 17.0323 13.141L12.25 12.2501L13.1409 17.0324C13.3121 17.9513 13.1617 18.9011 12.7149 19.722L10.3898 23.9949L15.2133 24.6254C16.1401 24.7466 16.997 25.1832 17.6398 25.8617L20.985 29.3935L23.0751 25.0009C23.4768 24.1569 24.1567 23.477 25.0008 23.0753L29.3934 20.9851L25.8617 17.6398ZM25.9012 26.3456L22.4387 33.6223C22.2159 34.0905 21.6557 34.2893 21.1875 34.0665C21.0831 34.0169 20.9888 33.9484 20.9093 33.8645L15.3676 28.014C15.2193 27.8573 15.0216 27.7566 14.8077 27.7287L6.8173 26.6842C6.30313 26.6171 5.94082 26.1457 6.00803 25.6315C6.023 25.517 6.05904 25.4061 6.11429 25.3045L9.96593 18.2262C10.069 18.0367 10.1038 17.8175 10.0643 17.6055L8.58842 9.68346C8.49345 9.17369 8.82971 8.68347 9.33948 8.5885C9.45313 8.56733 9.56972 8.56733 9.68338 8.5885L17.6054 10.0643C17.8175 10.1038 18.0367 10.0691 18.2261 9.96602L25.3044 6.11437C25.7599 5.86652 26.3301 6.03485 26.5778 6.4903C26.6332 6.59186 26.6692 6.70274 26.6841 6.81738L27.7286 14.8078C27.7566 15.0216 27.8573 15.2194 28.0138 15.3677L33.8643 20.9093C34.2408 21.2659 34.257 21.8602 33.9003 22.2367C33.8208 22.3206 33.7265 22.3891 33.6221 22.4387L26.3456 25.9013C26.1508 25.994 25.9938 26.1509 25.9012 26.3456ZM27.148 29.3611L29.361 27.1482L36 33.787L33.787 36L27.148 29.3611Z" fill="currentColor"/>
</svg>
