<svg width="43" height="42" viewBox="0 0 43 42" fill="none" xmlns="http://www.w3.org/2000/svg">
<g clip-path="url(#clip0_468_239)">
<path d="M10.7095 23.625C12.1592 23.625 13.3345 22.4497 13.3345 21C13.3345 19.5503 12.1592 18.375 10.7095 18.375C9.25973 18.375 8.08447 19.5503 8.08447 21C8.08447 22.4497 9.25973 23.625 10.7095 23.625Z" fill="black"/>
<path d="M21.2095 23.625C22.6592 23.625 23.8345 22.4497 23.8345 21C23.8345 19.5503 22.6592 18.375 21.2095 18.375C19.7597 18.375 18.5845 19.5503 18.5845 21C18.5845 22.4497 19.7597 23.625 21.2095 23.625Z" fill="black"/>
<path d="M31.7095 23.625C33.1592 23.625 34.3345 22.4497 34.3345 21C34.3345 19.5503 33.1592 18.375 31.7095 18.375C30.2597 18.375 29.0845 19.5503 29.0845 21C29.0845 22.4497 30.2597 23.625 31.7095 23.625Z" fill="black"/>
</g>
<defs>
<clipPath id="clip0_468_239">
<rect width="42" height="42" fill="white" transform="translate(0.209473)"/>
</clipPath>
</defs>
</svg>
