<svg  viewBox="0 0 41 41" fill="none" xmlns="http://www.w3.org/2000/svg">
<mask id="mask0_575_228" style="mask-type:alpha" maskUnits="userSpaceOnUse" x="0" y="0" width="41" height="41">
<rect x="0.692383" y="0.25" width="40" height="40" fill="#D9D9D9"/>
</mask>
<g mask="url(#mask0_575_228)">
<path d="M8.4703 32.472H10.484L29.0257 13.9583L27.012 11.9445L8.4703 30.4583V32.472ZM5.69238 35.2499V29.3333L28.9978 6.0695C29.2572 5.8195 29.5559 5.62505 29.8936 5.48617C30.2317 5.34728 30.5859 5.27783 30.9561 5.27783C31.3081 5.27783 31.6553 5.34728 31.9978 5.48617C32.3406 5.62505 32.6461 5.82408 32.9145 6.08325L34.9007 8.08325C35.1785 8.35186 35.3799 8.65742 35.5049 8.99992C35.6299 9.34242 35.6924 9.68505 35.6924 10.0278C35.6924 10.3795 35.6253 10.7289 35.4911 11.0762C35.3567 11.4234 35.1599 11.7267 34.9007 11.9862L11.609 35.2499H5.69238ZM28.012 12.9582L27.012 11.9445L29.0257 13.9583L28.012 12.9582Z" fill="currentColor"/>
</g>
</svg>
