<svg width="20" height="20" viewBox="0 0 20 20" fill="none" xmlns="http://www.w3.org/2000/svg">
<path fill-rule="evenodd" clip-rule="evenodd" d="M9.66842 15.53C9.775 15.594 9.88909 15.6223 9.99984 15.6209C10.1106 15.6223 10.2247 15.594 10.3313 15.53L11.2773 14.9624C13.1328 13.8491 15.4019 13.6673 17.4109 14.4709C18.152 14.7673 18.9582 14.2216 18.9582 13.4234V3.70763C18.9582 3.226 18.6649 2.7929 18.2178 2.61403C15.6302 1.579 12.7075 1.81319 10.3178 3.24704L9.99984 3.4378L9.68192 3.24704C7.29215 1.81319 4.36948 1.579 1.7819 2.61403C1.33473 2.7929 1.0415 3.226 1.0415 3.70763V13.4234C1.0415 14.2216 1.84766 14.7673 2.58877 14.4709C4.59777 13.6673 6.86694 13.8491 8.72234 14.9624L9.66842 15.53ZM2.2915 3.75665V13.2456C4.62133 12.3723 7.22633 12.6071 9.3655 13.8905L9.37484 13.8961V4.52054L9.03875 4.3189C6.99795 3.09441 4.50512 2.88746 2.2915 3.75665ZM10.6342 13.8905L10.6248 13.8961V4.52054L10.9609 4.3189C13.0018 3.09441 15.4946 2.88746 17.7082 3.75665V13.2456C15.3783 12.3723 12.7733 12.6071 10.6342 13.8905Z" fill="black"/>
<path d="M7.7294 15.8686C6.04285 14.8848 3.95735 14.8848 2.2708 15.8686L2.18518 15.9185C1.88702 16.0924 1.78632 16.4751 1.96024 16.7733C2.13417 17.0714 2.51686 17.1722 2.81502 16.9983L2.90064 16.9483C4.19798 16.1915 5.80222 16.1915 7.09956 16.9483L8.00561 17.4769C9.2381 18.1958 10.7621 18.1958 11.9946 17.4769L12.9006 16.9483C14.198 16.1915 15.8022 16.1915 17.0996 16.9483L17.1852 16.9983C17.4833 17.1722 17.866 17.0714 18.0399 16.7733C18.2139 16.4751 18.1132 16.0924 17.815 15.9185L17.7294 15.8686C16.0428 14.8848 13.9573 14.8848 12.2708 15.8686L11.3648 16.3971C10.5215 16.889 9.47868 16.889 8.63543 16.3971L7.7294 15.8686Z" fill="black"/>
</svg>
