<svg width="42" height="42" viewBox="0 0 42 42" fill="none" xmlns="http://www.w3.org/2000/svg">
<path d="M37.1306 19.2939V13.0857C37.1289 11.9712 36.6849 10.903 35.8962 10.1155C35.1075 9.32804 34.0386 8.88575 32.9241 8.88575H10.1194C9.56696 8.88488 9.01979 8.99284 8.50909 9.20344C7.9984 9.41404 7.53419 9.72317 7.14296 10.1132C6.75174 10.5032 6.44116 10.9664 6.22897 11.4765C6.01677 11.9865 5.90711 12.5333 5.90625 13.0857V19.2939" stroke="black" stroke-width="1.5"/>
<path d="M38.5154 19.2937H37.2029C37.0665 19.2937 36.9315 19.321 36.8059 19.3742C36.6803 19.4273 36.5667 19.5052 36.4718 19.6032C36.3769 19.7011 36.3027 19.8172 36.2535 19.9444C36.2044 20.0716 36.1813 20.2074 36.1857 20.3437C36.1857 20.3437 36.1857 22.9687 36.1857 23.5725C36.1857 23.8219 35.5295 23.7037 34.6107 23.6709H8.43292C7.92761 23.6709 6.87105 23.8547 6.87105 23.6709C6.87105 22.6931 6.87105 20.3897 6.87105 20.3897C6.88102 20.2487 6.8617 20.1073 6.81432 19.9741C6.76694 19.841 6.69252 19.7192 6.59574 19.6162C6.49896 19.5133 6.38192 19.4315 6.25198 19.376C6.12204 19.3205 5.98202 19.2925 5.84074 19.2937H4.52824C4.39156 19.2937 4.25625 19.321 4.13031 19.3741C4.00436 19.4272 3.89031 19.505 3.7949 19.6028C3.69948 19.7007 3.62463 19.8167 3.57475 19.9439C3.52487 20.0712 3.50098 20.2071 3.50449 20.3437V30.1875C3.50449 30.3894 3.58469 30.583 3.72745 30.7258C3.87021 30.8685 4.06384 30.9487 4.26574 30.9487H38.7714C38.8719 30.9496 38.9716 30.9306 39.0647 30.8927C39.1578 30.8548 39.2425 30.7989 39.3139 30.7281C39.3853 30.6573 39.4419 30.5731 39.4806 30.4803C39.5193 30.3875 39.5392 30.288 39.5392 30.1875V20.3437C39.5427 20.2071 39.5188 20.0712 39.4689 19.9439C39.419 19.8167 39.3442 19.7007 39.2488 19.6028C39.1533 19.505 39.0393 19.4272 38.9134 19.3741C38.7874 19.321 38.6521 19.2937 38.5154 19.2937Z" stroke="black" stroke-width="1.5"/>
<path d="M7.7832 33.915V30.9487" stroke="black" stroke-width="1.5"/>
<path d="M34.7615 33.915V30.9487" stroke="black" stroke-width="1.5"/>
</svg>
