<svg viewBox="0 0 42 42" fill="none" xmlns="http://www.w3.org/2000/svg">
<path d="M31.9145 10.3612C29.7445 6.68467 26.664 3.62922 22.9697 1.48951L22.3124 1.10938L21.6553 1.48951C17.8982 3.65777 14.7785 6.7773 12.61 10.5342C10.4415 14.2912 9.30066 18.553 9.30237 22.8909C9.30237 23.1733 9.3073 23.4605 9.31689 23.744C9.4475 27.5875 10.9174 30.8219 13.5677 33.0971C15.5959 34.8381 18.1975 35.9009 21.0003 36.1545V40.6882H23.6253V19.6882H20.9999V33.5127C16.5651 32.9989 12.1511 29.866 11.9402 23.6548C11.9315 23.4008 11.9271 23.1438 11.9271 22.8909C11.9349 19.1452 12.8914 15.4627 14.7075 12.1868C16.5236 8.91092 19.14 6.14852 22.3124 4.15741C25.485 6.14858 28.1013 8.91099 29.9174 12.1868C31.7334 15.4627 32.6899 19.1452 32.6976 22.8909C32.6976 23.1438 32.6933 23.4008 32.6845 23.6548C32.516 28.6237 29.657 31.6222 26.2498 32.8862V35.6643C28.0178 35.1633 29.6575 34.2876 31.0574 33.0969C33.7076 30.8217 35.1776 27.5874 35.3081 23.7438C35.3177 23.4603 35.3226 23.1733 35.3226 22.8907C35.3251 18.4849 34.1482 14.1588 31.9145 10.3612Z" fill="currentColor"/>
</svg>
