<svg width="42" height="42" viewBox="0 0 42 42" fill="none" xmlns="http://www.w3.org/2000/svg">
<path d="M5.25012 22.7501H7.00012V35.0001C7.00012 36.9304 8.56987 38.5001 10.5001 38.5001H31.5001C33.4304 38.5001 35.0001 36.9304 35.0001 35.0001V22.7501H36.7501C37.0962 22.75 37.4344 22.6474 37.7222 22.4551C38.0099 22.2628 38.2341 21.9895 38.3665 21.6698C38.499 21.35 38.5336 20.9982 38.4661 20.6588C38.3986 20.3194 38.232 20.0076 37.9874 19.7629L22.2374 4.01286C22.075 3.8502 21.8821 3.72116 21.6698 3.63312C21.4575 3.54507 21.2299 3.49976 21.0001 3.49976C20.7703 3.49976 20.5427 3.54507 20.3304 3.63312C20.1181 3.72116 19.9252 3.8502 19.7629 4.01286L4.01287 19.7629C3.7682 20.0076 3.60159 20.3194 3.53409 20.6588C3.4666 20.9982 3.50126 21.35 3.63368 21.6698C3.7661 21.9895 3.99035 22.2628 4.27806 22.4551C4.56578 22.6474 4.90405 22.75 5.25012 22.7501ZM17.5001 35.0001V26.2501H24.5001V35.0001H17.5001ZM21.0001 7.72461L31.5001 18.2246V26.2501L31.5019 35.0001H28.0001V26.2501C28.0001 24.3199 26.4304 22.7501 24.5001 22.7501H17.5001C15.5699 22.7501 14.0001 24.3199 14.0001 26.2501V35.0001H10.5001V18.2246L21.0001 7.72461Z" fill="black"/>
</svg>
