<svg viewBox="0 0 40 40" fill="none" xmlns="http://www.w3.org/2000/svg">
<mask id="mask0_642_25" style="mask-type:alpha" maskUnits="userSpaceOnUse" x="0" y="0" width="40" height="40">
<rect width="40" height="40" fill="#4B5563"/>
</mask>
<g mask="url(#mask0_642_25)">
<path d="M7.77792 35C7.02792 35 6.37736 34.7246 5.82625 34.1737C5.27542 33.6226 5 32.9721 5 32.2221V7.77792C5 7.02792 5.27542 6.37736 5.82625 5.82625C6.37736 5.27542 7.02792 5 7.77792 5H19.4167V7.77792H7.77792V32.2221H32.2221V20.5833H35V32.2221C35 32.9721 34.7246 33.6226 34.1737 34.1737C33.6226 34.7246 32.9721 35 32.2221 35H7.77792ZM16 25.9721L14.0554 24L30.2779 7.77792H22.1946V5H35V17.8054H32.2221V9.75L16 25.9721Z" fill="currentColor"/>
</g>
</svg>
