<svg  viewBox="0 0 42 42" fill="none" xmlns="http://www.w3.org/2000/svg">
<path d="M34.9286 9.59998H7.07143C6.47879 9.59998 6 10.0875 6 10.6909V32.5091C6 33.1125 6.47879 33.6 7.07143 33.6H34.9286C35.5212 33.6 36 33.1125 36 32.5091V10.6909C36 10.0875 35.5212 9.59998 34.9286 9.59998ZM33.5893 31.1454H8.41071V29.7852L13.048 24.1841L18.0737 30.2522L25.8917 20.8159L33.5893 30.1091V31.1454ZM33.5893 26.7204L26.096 17.6727C25.9888 17.5432 25.7946 17.5432 25.6875 17.6727L18.0737 26.8636L13.2522 21.0443C13.1451 20.9147 12.9509 20.9147 12.8437 21.0443L8.41071 26.3966V12.0545H33.5893V26.7204ZM14.0357 19.6909C14.4226 19.6909 14.8058 19.6133 15.1633 19.4625C15.5207 19.3118 15.8456 19.0908 16.1192 18.8122C16.3928 18.5336 16.6098 18.2029 16.7579 17.8389C16.9059 17.475 16.9821 17.0849 16.9821 16.6909C16.9821 16.2969 16.9059 15.9068 16.7579 15.5428C16.6098 15.1789 16.3928 14.8481 16.1192 14.5696C15.8456 14.291 15.5207 14.07 15.1633 13.9192C14.8058 13.7685 14.4226 13.6909 14.0357 13.6909C13.2543 13.6909 12.5048 14.007 11.9523 14.5696C11.3997 15.1322 11.0893 15.8952 11.0893 16.6909C11.0893 17.4865 11.3997 18.2496 11.9523 18.8122C12.5048 19.3748 13.2543 19.6909 14.0357 19.6909ZM14.0357 15.7363C14.5547 15.7363 14.9732 16.1625 14.9732 16.6909C14.9732 17.2193 14.5547 17.6454 14.0357 17.6454C13.5167 17.6454 13.0982 17.2193 13.0982 16.6909C13.0982 16.1625 13.5167 15.7363 14.0357 15.7363Z" fill="currentColor"/>
</svg>
