<svg width="20" height="20" viewBox="0 0 20 20" fill="none" xmlns="http://www.w3.org/2000/svg">
<g clip-path="url(#clip0_164_427)">
<path fill-rule="evenodd" clip-rule="evenodd" d="M13.3332 7.50002C13.3332 9.34094 11.8408 10.8334 9.99984 10.8334C8.15889 10.8334 6.6665 9.34094 6.6665 7.50002C6.6665 5.65907 8.15889 4.16669 9.99984 4.16669C11.8408 4.16669 13.3332 5.65907 13.3332 7.50002ZM11.6665 7.50002C11.6665 8.42052 10.9203 9.16669 9.99984 9.16669C9.07934 9.16669 8.33317 8.42052 8.33317 7.50002C8.33317 6.57955 9.07934 5.83335 9.99984 5.83335C10.9203 5.83335 11.6665 6.57955 11.6665 7.50002Z" fill="black"/>
<path fill-rule="evenodd" clip-rule="evenodd" d="M10.0002 0.833374C4.93755 0.833374 0.833496 4.93743 0.833496 10C0.833496 15.0626 4.93755 19.1667 10.0002 19.1667C15.0627 19.1667 19.1668 15.0626 19.1668 10C19.1668 4.93743 15.0627 0.833374 10.0002 0.833374ZM2.50016 10C2.50016 11.7419 3.09395 13.345 4.09015 14.6181C5.46054 12.8241 7.62205 11.6667 10.0539 11.6667C12.4542 11.6667 14.5912 12.7943 15.9639 14.5486C16.9277 13.287 17.5002 11.7104 17.5002 10C17.5002 5.85791 14.1423 2.50004 10.0002 2.50004C5.85803 2.50004 2.50016 5.85791 2.50016 10ZM10.0002 17.5C8.2083 17.5 6.5632 16.8716 5.27322 15.8232C6.3281 14.3177 8.07605 13.3334 10.0539 13.3334C12.0072 13.3334 13.7362 14.2935 14.795 15.7675C13.4951 16.8493 11.8236 17.5 10.0002 17.5Z" fill="black"/>
</g>
<defs>
<clipPath id="clip0_164_427">
<rect width="20" height="20" fill="white"/>
</clipPath>
</defs>
</svg>
