<svg  viewBox="0 0 42 42" fill="none" xmlns="http://www.w3.org/2000/svg">
<path d="M15.75 31.5002C15.75 34.3997 13.3995 36.7502 10.5 36.7502C7.60051 36.7502 5.25 34.3997 5.25 31.5002C5.25 28.6006 7.60051 26.2502 10.5 26.2502C13.3995 26.2502 15.75 28.6006 15.75 31.5002ZM15.75 31.5002V10.2107C15.75 9.36491 16.3549 8.64019 17.187 8.4889L33.9686 5.4377C34.5056 5.34005 35 5.75267 35 6.2986V28.0002M35 28.0002C35 30.8997 32.6496 33.2502 29.75 33.2502C26.8504 33.2502 24.5 30.8997 24.5 28.0002C24.5 25.1006 26.8504 22.7502 29.75 22.7502C32.6496 22.7502 35 25.1006 35 28.0002Z" stroke="currentColor" stroke-width="3" stroke-linecap="round" stroke-linejoin="round"/>
</svg>
