<svg viewBox="0 0 42 42" fill="none" xmlns="http://www.w3.org/2000/svg">
<g clip-path="url(#clip0_468_271)">
<mask id="mask0_468_271" style="mask-type:luminance" maskUnits="userSpaceOnUse" x="0" y="0" width="42" height="42">
<path d="M42 0H0V42H42V0Z" fill="currentColor"/>
</mask>
<g mask="url(#mask0_468_271)">
<path d="M21 38.5C11.3575 38.5 3.5 30.6425 3.5 21C3.5 11.3575 11.3575 3.5 21 3.5C30.6425 3.5 38.5 10.57 38.5 19.25C38.5 25.0425 33.7925 29.75 28 29.75H24.9025C24.4125 29.75 24.0275 30.135 24.0275 30.625C24.0275 30.835 24.115 31.0275 24.255 31.2025C24.9725 32.025 25.375 33.0575 25.375 34.125C25.375 36.54 23.415 38.5 21 38.5ZM21 7C13.2825 7 7 13.2825 7 21C7 28.7175 13.2825 35 21 35C21.49 35 21.875 34.615 21.875 34.125C21.875 33.845 21.735 33.635 21.63 33.5125C20.9125 32.7075 20.5275 31.675 20.5275 30.625C20.5275 28.21 22.4875 26.25 24.9025 26.25H28C31.8675 26.25 35 23.1175 35 19.25C35 12.495 28.7175 7 21 7Z" fill="currentColor"/>
<path d="M11.375 22.75C12.8248 22.75 14 21.5747 14 20.125C14 18.6753 12.8248 17.5 11.375 17.5C9.92525 17.5 8.75 18.6753 8.75 20.125C8.75 21.5747 9.92525 22.75 11.375 22.75Z" fill="currentColor"/>
<path d="M16.625 15.75C18.0747 15.75 19.25 14.5748 19.25 13.125C19.25 11.6752 18.0747 10.5 16.625 10.5C15.1752 10.5 14 11.6752 14 13.125C14 14.5748 15.1752 15.75 16.625 15.75Z" fill="currentColor"/>
<path d="M25.375 15.75C26.8247 15.75 28 14.5748 28 13.125C28 11.6752 26.8247 10.5 25.375 10.5C23.9253 10.5 22.75 11.6752 22.75 13.125C22.75 14.5748 23.9253 15.75 25.375 15.75Z" fill="currentColor"/>
<path d="M30.625 22.75C32.0747 22.75 33.25 21.5747 33.25 20.125C33.25 18.6753 32.0747 17.5 30.625 17.5C29.1753 17.5 28 18.6753 28 20.125C28 21.5747 29.1753 22.75 30.625 22.75Z" fill="currentColor"/>
</g>
</g>
<defs>
<clipPath id="clip0_468_271">
<rect width="42" height="42" fill="white"/>
</clipPath>
</defs>
</svg>
