<?xml version="1.0" encoding="UTF-8"?>
<svg version="1.1" xmlns="http://www.w3.org/2000/svg" width="800" height="865">
<path d="M0 0 C1.81004259 -0.00374452 3.62008356 -0.00834921 5.43012202 -0.01373065 C10.36467774 -0.02587731 15.29916524 -0.02571009 20.23373246 -0.02334189 C25.57143063 -0.02293159 30.90910755 -0.03399322 36.24679565 -0.04345703 C46.69066162 -0.06002305 57.134505 -0.06556462 67.57838301 -0.06668179 C76.07562107 -0.06763451 84.57285172 -0.07175599 93.07008743 -0.07808304 C117.20333989 -0.09568475 141.33657461 -0.10492378 165.46983354 -0.10342209 C167.41867692 -0.10330222 167.41867692 -0.10330222 169.40689087 -0.10317993 C171.35813619 -0.10305729 171.35813619 -0.10305729 173.34880061 -0.10293217 C194.41186488 -0.10211995 215.47485752 -0.12124429 236.53790109 -0.14945666 C258.20648955 -0.17824918 279.87504316 -0.19199341 301.54365122 -0.19026911 C313.69224171 -0.18960733 325.84075713 -0.19500631 337.98933029 -0.21662521 C348.33631363 -0.23492116 358.68318791 -0.23911584 369.0301805 -0.22560637 C374.29915154 -0.21911847 379.56791386 -0.21880645 384.83686447 -0.23631287 C447.10217977 -0.43003818 500.58423224 15.61935735 545.84780884 60.14242554 C552.40161467 66.73248531 558.20714397 73.74869956 563.66030884 81.26742554 C564.07200317 81.82945679 564.48369751 82.39148804 564.90786743 82.97055054 C590.10913841 117.78323694 602.00108748 158.43671665 601.92773438 201.07476807 C601.93147716 203.15292243 601.93608118 205.23107539 601.94146502 207.30922616 C601.95363299 212.98488166 601.9534419 218.66047794 601.95107627 224.33614349 C601.95066652 230.4713938 601.9617224 236.60662552 601.97119141 242.74186707 C601.987769 254.74986045 601.99332551 266.75782886 601.99441616 278.76583068 C601.99533751 288.53356811 601.99946593 298.30129921 602.00581741 308.06903458 C602.00761269 310.88723536 602.00939232 313.70543614 602.01116717 316.52363694 C602.01183031 317.57476079 602.01183031 317.57476079 602.01250685 318.64711946 C602.02480571 338.3432668 602.03270897 358.03941194 602.0318203 377.73556328 C602.03178914 378.47728701 602.03175798 379.21901074 602.03172588 379.98321094 C602.03155968 383.74200687 602.0313616 387.50080279 602.03115647 391.25959872 C602.03109663 392.37922797 602.03109663 392.37922797 602.03103559 393.52147599 C602.03095471 395.03091783 602.03087111 396.54035967 602.0307848 398.04980151 C602.02956029 421.51527131 602.04455814 444.98068323 602.07192993 468.44613647 C602.10271941 494.85197258 602.11985825 521.25777066 602.11800349 547.66362584 C602.11785424 550.48497017 602.11775682 553.30631451 602.11769485 556.12765884 C602.11765989 557.16957071 602.11765989 557.16957071 602.11762422 558.2325313 C602.11756294 569.36154321 602.13027935 580.49050445 602.14755938 591.61950133 C602.16459823 602.82579879 602.1660856 614.03202389 602.15334074 625.23833363 C602.14684271 631.29714864 602.14657857 637.35578203 602.16404724 643.41457939 C602.33786264 707.78384709 588.0653517 762.40515223 541.78530884 809.45492554 C535.19524907 816.00873137 528.17903482 821.81426067 520.66030884 827.26742554 C520.09827759 827.67911987 519.53624634 828.09081421 518.95718384 828.51498413 C485.11169748 853.01608879 444.91612272 865.61737887 403.32061768 865.53485107 C401.51057509 865.5385956 399.70053412 865.54320029 397.89049566 865.54858172 C392.95593994 865.56072839 388.02145244 865.56056116 383.08688521 865.55819297 C377.74918704 865.55778267 372.41151013 865.5688443 367.07382202 865.57830811 C356.62995606 865.59487412 346.18611267 865.60041569 335.74223466 865.60153286 C327.24499661 865.60248559 318.74776595 865.60660707 310.25053024 865.61293411 C286.11727778 865.63053583 261.98404306 865.63977485 237.85078414 865.63827316 C235.90194076 865.6381533 235.90194076 865.6381533 233.91372681 865.63803101 C232.61289659 865.63794924 231.31206637 865.63786748 229.97181706 865.63778324 C208.90875279 865.63697103 187.84576015 865.65609537 166.78271659 865.68430774 C145.11412812 865.71310025 123.44557451 865.72684448 101.77696645 865.72512019 C89.62837597 865.7244584 77.47986055 865.72985738 65.33128738 865.75147629 C54.98430404 865.76977224 44.63742977 865.77396692 34.29043718 865.76045744 C29.02146614 865.75396955 23.75270382 865.75365752 18.4837532 865.77116394 C-43.78156209 865.96488926 -97.26361457 849.91549372 -142.52719116 805.39242554 C-149.08099699 798.80236577 -154.88652629 791.78615152 -160.33969116 784.26742554 C-160.7513855 783.70539429 -161.16307983 783.14336304 -161.58724976 782.56430054 C-186.78852074 747.75161413 -198.68046981 707.09813442 -198.6071167 664.46008301 C-198.61085949 662.38192864 -198.6154635 660.30377568 -198.62084734 658.22562492 C-198.63301531 652.54996942 -198.63282422 646.87437313 -198.63045859 641.19870758 C-198.63004884 635.06345727 -198.64110472 628.92822555 -198.65057373 622.79298401 C-198.66715133 610.78499062 -198.67270783 598.77702222 -198.67379849 586.76902039 C-198.67471984 577.00128297 -198.67884826 567.23355187 -198.68519974 557.4658165 C-198.68699501 554.64761572 -198.68877464 551.82941493 -198.69054949 549.01121414 C-198.69099159 548.3104649 -198.69143369 547.60971567 -198.69188918 546.88773161 C-198.70418803 527.19158428 -198.7120913 507.49543914 -198.71120262 487.7992878 C-198.71117146 487.05756407 -198.71114031 486.31584034 -198.7111082 485.55164013 C-198.71094201 481.7928442 -198.71074393 478.03404828 -198.71053879 474.27525236 C-198.7104989 473.52883286 -198.71045901 472.78241336 -198.71041791 472.01337508 C-198.71033703 470.50393324 -198.71025344 468.99449141 -198.71016713 467.48504957 C-198.70894261 444.01957977 -198.72394046 420.55416785 -198.75131226 397.0887146 C-198.78210173 370.68287849 -198.79924057 344.27708041 -198.79738581 317.87122524 C-198.79723657 315.0498809 -198.79713914 312.22853657 -198.79707718 309.40719223 C-198.79705387 308.71258432 -198.79703056 308.01797641 -198.79700655 307.30231977 C-198.79694526 296.17330787 -198.80966167 285.04434663 -198.82694171 273.91534974 C-198.84398055 262.70905229 -198.84546793 251.50282718 -198.83272307 240.29651745 C-198.82622503 234.23770243 -198.8259609 228.17906904 -198.84342957 222.12027168 C-199.01724496 157.75100398 -184.74473402 103.12969884 -138.46469116 56.07992554 C-131.87463139 49.52611971 -124.85841714 43.72059041 -117.33969116 38.26742554 C-116.77765991 37.8557312 -116.21562866 37.44403687 -115.63656616 37.01986694 C-81.7910798 12.51876228 -41.59550505 -0.0825278 0 0 Z " fill="#B8E3CD" transform="translate(198.33969116210938,-0.267425537109375)"/>
<path d="M0 0 C19.8 0 39.6 0 60 0 C60.69152654 3.4576327 61.1825488 6.4785488 61.41723633 9.9465332 C61.48447906 10.91413071 61.5517218 11.88172821 61.6210022 12.87864685 C61.72546158 14.44885338 61.72546158 14.44885338 61.83203125 16.05078125 C61.99043692 18.33968387 62.1488861 20.62858348 62.30737305 22.91748047 C62.43080582 24.72608551 62.43080582 24.72608551 62.55673218 26.57122803 C64.07600488 48.79455665 65.76253865 70.99731138 67.69262695 93.1887207 C67.85134824 95.02943603 68.00980306 96.87017435 68.16796875 98.7109375 C68.24354507 99.5804454 68.3191214 100.44995331 68.39698792 101.34580994 C68.76063335 105.65260415 69.06369047 109.95283809 69.26416016 114.27050781 C69.30326004 115.10619293 69.34235992 115.94187805 69.38264465 116.80288696 C69.45124746 118.37687694 69.51122579 119.95127517 69.56108093 121.52597046 C69.6083411 125.7187067 69.6083411 125.7187067 72 129 C74.40491422 129.28090287 74.40491422 129.28090287 77.0625 129.1875 C77.96097656 129.18105469 78.85945312 129.17460938 79.78515625 129.16796875 C81.97325599 129.24394743 81.97325599 129.24394743 83 128 C83.33 125.36 83.66 122.72 84 120 C109.74 120 135.48 120 162 120 C162.16121214 156.35781498 162.16121214 156.35781498 162.1953125 171.74414062 C162.21892888 182.31428912 162.24649414 192.88430891 162.30175781 203.4543457 C162.34200942 211.15685738 162.36752231 218.85926335 162.37635398 226.56187731 C162.38150495 230.62890365 162.39334225 234.69562796 162.42292023 238.76255608 C162.83858783 298.30391481 144.26117194 350.35051855 102.125 393.1875 C95.53494023 399.74130583 88.51872598 405.54683513 81 411 C80.15695312 411.6175415 80.15695312 411.6175415 79.296875 412.24755859 C45.45138864 436.74866325 5.25581388 449.34995333 -36.33969116 449.26742554 C-38.14973375 449.27117006 -39.95977472 449.27577475 -41.76981318 449.28115618 C-46.7043689 449.29330285 -51.6388564 449.29313562 -56.57342362 449.29076743 C-61.91112179 449.29035713 -67.24879871 449.30141876 -72.58648682 449.31088257 C-83.03035278 449.32744858 -93.47419616 449.33299015 -103.91807418 449.33410732 C-112.41531223 449.33506005 -120.91254288 449.33918153 -129.40977859 449.34550858 C-153.54303105 449.36311029 -177.67626578 449.37234932 -201.8095247 449.37084763 C-203.75836808 449.37072776 -203.75836808 449.37072776 -205.74658203 449.37060547 C-207.04741225 449.37052371 -208.34824246 449.37044195 -209.68849178 449.37035771 C-230.75155604 449.36954549 -251.81454869 449.38866983 -272.87759225 449.4168822 C-294.54618071 449.44567472 -316.21473432 449.45941895 -337.88334239 449.45769465 C-350.03193287 449.45703286 -362.18044829 449.46243184 -374.32902145 449.48405075 C-384.6760048 449.5023467 -395.02287907 449.50654138 -405.36987166 449.4930319 C-410.6388427 449.48654401 -415.90760502 449.48623199 -421.17655563 449.5037384 C-483.44187093 449.69746372 -536.9239234 433.64806819 -582.1875 389.125 C-588.74130583 382.53494023 -594.54683513 375.51872598 -600 368 C-600.41169434 367.43796875 -600.82338867 366.8759375 -601.24755859 366.296875 C-624.86950458 333.66584624 -638.44891774 293.92195027 -638.22705078 253.61938477 C-638.22648474 252.14921069 -638.22680698 250.67903605 -638.22793579 249.2088623 C-638.22850278 245.26974228 -638.21685621 241.33074744 -638.20278788 237.39165616 C-638.19016975 233.25573462 -638.18910138 229.11980928 -638.18673706 224.98387146 C-638.18055452 217.17512294 -638.16418801 209.36643134 -638.14403808 201.55770773 C-638.11736701 190.98936335 -638.10668033 180.42100309 -638.09503365 169.85263348 C-638.07630458 153.23504647 -638.03643762 136.61757948 -638 120 C-598.07 120 -558.14 120 -517 120 C-516.505 123.96 -516.505 123.96 -516 128 C-514.89442383 129.33128112 -514.89442383 129.33128112 -512.10838318 129.12025452 C-510.81376663 129.11803391 -509.51915009 129.11581329 -508.18530273 129.11352539 C-507.47314606 129.11367142 -506.76098938 129.11381744 -506.0272522 129.1139679 C-503.66266888 129.1132687 -501.29816339 129.10547606 -498.93359375 129.09765625 C-497.29834537 129.09579209 -495.66309643 129.09436818 -494.02784729 129.09336853 C-489.71565215 129.08954318 -485.40349048 129.07971275 -481.09130859 129.06866455 C-476.69434054 129.0584508 -472.29736711 129.05387099 -467.90039062 129.04882812 C-459.26691169 129.03809049 -450.63346 129.02101387 -442 129 C-441.01 126.03 -440.02 123.06 -439 120 C-431.41 120 -423.82 120 -416 120 C-415.67 124.95 -415.34 129.9 -415 135 C-411.5414612 135.05375967 -408.08375092 135.09355681 -404.625 135.125 C-403.64015625 135.14175781 -402.6553125 135.15851563 -401.640625 135.17578125 C-400.22910156 135.18544922 -400.22910156 135.18544922 -398.7890625 135.1953125 C-397.91975098 135.20578613 -397.05043945 135.21625977 -396.15478516 135.22705078 C-393.78654061 135.20595109 -393.78654061 135.20595109 -392 133 C-391.67 128.71 -391.34 124.42 -391 120 C-285.07 120 -179.14 120 -70 120 C-69.67 124.95 -69.34 129.9 -69 135 C-65.5414612 135.05375967 -62.08375092 135.09355681 -58.625 135.125 C-57.64015625 135.14175781 -56.6553125 135.15851563 -55.640625 135.17578125 C-54.22910156 135.18544922 -54.22910156 135.18544922 -52.7890625 135.1953125 C-51.91975098 135.20578613 -51.05043945 135.21625977 -50.15478516 135.22705078 C-47.78654061 135.20595109 -47.78654061 135.20595109 -46 133 C-45.53513282 129.87803664 -45.53513282 129.87803664 -45.375 126.375 C-45.25125 124.27125 -45.1275 122.1675 -45 120 C-38.07 120 -31.14 120 -24 120 C-23.34 122.64 -22.68 125.28 -22 128 C-20.18757948 128.02687279 -18.37504767 128.04633715 -16.5625 128.0625 C-15.55316406 128.07410156 -14.54382813 128.08570313 -13.50390625 128.09765625 C-11.05978933 128.28612676 -11.05978933 128.28612676 -10 127 C-9.62687963 124.11405307 -9.31456398 121.2439921 -9.04321289 118.34790039 C-8.95678811 117.45233712 -8.87036333 116.55677385 -8.78131962 115.6340723 C-7.80054622 105.24566764 -7.04922313 94.84133283 -6.30859375 84.43359375 C-6.15717533 82.33616728 -6.00548197 80.23876063 -5.85353088 78.14137268 C-5.45868004 72.68305901 -5.06690914 67.22452921 -4.67602539 61.76593018 C-4.04796421 53.00184106 -3.41535883 44.23807932 -2.78227425 35.47435188 C-2.56353428 32.43963677 -2.34628316 29.40481796 -2.1292572 26.36997986 C-1.99433072 24.49461603 -1.8593686 22.61925478 -1.72436523 20.74389648 C-1.66564743 19.91719452 -1.60692963 19.09049255 -1.5464325 18.23873901 C-1.10630077 12.14892412 -0.5530641 6.08370515 0 0 Z " fill="#FEFEFE" transform="translate(638,416)"/>
<path d="M0 0 C18.35562133 5.280732 32.80368164 19.97698182 42.03173828 36.21923828 C50.47239651 51.74272822 55.17570659 69.25564818 55.1875 86.875 C55.19974609 87.83019531 55.21199219 88.78539062 55.22460938 89.76953125 C55.23477574 94.71038475 54.84982586 98.83071748 53.47875977 103.60595703 C52.2810204 109.59526464 52.50773861 115.90646831 52.375 122 C52.33675034 123.45705282 52.29769473 124.91408471 52.2578125 126.37109375 C52.16257494 129.91386926 52.07827103 133.4568043 52 137 C52.66 137 53.32 137 54 137 C54.37125 136.01 54.37125 136.01 54.75 135 C56 132 56 132 57.12890625 130.0625 C57.51949219 129.381875 57.91007812 128.70125 58.3125 128 C58.70050781 127.360625 59.08851563 126.72125 59.48828125 126.0625 C60.2891692 123.8700337 60.2891692 123.8700337 58.625 121.6953125 C58.08875 120.80585938 57.5525 119.91640625 57 119 C54.88534835 99.30872761 61.91451694 81.34947905 74 66 C85.15128977 53.40996561 105.78651808 36.04868904 122.9375 34.6875 C127.26712457 34.82046352 130.2440421 35.82154442 134 38 C136.81597627 42.16274753 136.6212674 47.16065395 136 52 C131.35732471 72.81646037 121.73770458 91.57188043 107 107 C106.45988281 107.61488281 105.91976562 108.22976563 105.36328125 108.86328125 C97.35836004 117.63441659 84.75335305 125.4659072 72.96875 127.53125 C68.36973597 129.80655168 67.62329898 133.38100271 66 138.0625 C65.66605225 138.97902344 65.33210449 139.89554688 64.98803711 140.83984375 C61.07904879 151.97267233 58.44934275 163.47106276 56 175 C55.81373047 175.75563232 55.62746094 176.51126465 55.43554688 177.28979492 C54.83073845 181.05323567 54.87731189 184.78199935 54.90234375 188.58203125 C54.9037587 189.39621017 54.90517365 190.2103891 54.90663147 191.04924011 C54.91220683 193.63703156 54.92475476 196.22473492 54.9375 198.8125 C54.94251819 200.57226437 54.94708054 202.33203011 54.95117188 204.09179688 C54.96131519 208.39459209 54.9808953 212.697198 55 217 C66.88 217 78.76 217 91 217 C90.84305116 209.55138275 90.84305116 209.55138275 90.63964844 202.10400391 C90.53649903 192.29981891 92.91042265 183.98864447 99.8671875 176.828125 C109.77615846 168.33472132 120.17570455 167.80428779 132.69384766 168.74462891 C137.36649511 169.26205313 141.07649068 170.42783635 145 173 C145.71027344 173.46277344 146.42054688 173.92554688 147.15234375 174.40234375 C153.76463899 179.43852392 154.94630875 183.89261749 159 192 C159 220.05 159 248.1 159 277 C253.38 277 347.76 277 445 277 C445 249.28 445 221.56 445 193 C449.48763469 181.78091328 453.37451118 175.10145329 464.2890625 170.0703125 C475.69113177 166.78171568 488.37038775 167.82040421 499 173 C501.98175328 173.99391776 503.89386177 174.11673137 507.00340271 174.10006714 C508.03668701 174.09710632 509.06997131 174.09414551 510.13456726 174.09109497 C511.83417351 174.07863235 511.83417351 174.07863235 513.56811523 174.06591797 C514.76181732 174.06124512 515.95551941 174.05657227 517.18539429 174.05175781 C520.46019921 174.03849455 523.73495496 174.02099443 527.00973392 174.00259924 C530.43649161 173.9851854 533.8632669 173.97579571 537.29005432 173.96633911 C548.96402184 173.93290218 560.63791764 173.89125715 572.31176758 173.82861328 C578.75936974 173.79409624 585.20691885 173.77028352 591.65460354 173.75840485 C595.06639857 173.75163179 598.47796849 173.73916696 601.88967705 173.71337509 C605.69404714 173.68698432 609.49804019 173.67901072 613.30249023 173.67529297 C614.43353683 173.6629361 615.56458344 173.65057922 616.72990417 173.6378479 C617.7660083 173.64052673 618.80211243 173.64320557 619.86961365 173.64596558 C621.21880465 173.63986928 621.21880465 173.63986928 622.59525204 173.63364983 C625.54029988 174.08231173 626.90231625 174.89939423 629 177 C629.35149886 179.83880012 629.46985818 182.23922099 629.375 185.0625 C629.37371094 185.79533203 629.37242187 186.52816406 629.37109375 187.28320312 C629.28125 192.71875 629.28125 192.71875 627 195 C625.02 195 623.04 195 621 195 C621 199.62 621 204.24 621 209 C619.68 209.33 618.36 209.66 617 210 C617.00276538 210.98675122 617.00276538 210.98675122 617.00558662 211.99343681 C617.04971248 227.98353582 617.08283061 243.97361372 617.10362434 259.96375847 C617.11394673 267.69640155 617.12802538 275.42900405 617.15087891 283.16162109 C617.1707834 289.89961591 617.18370943 296.63758135 617.18817699 303.37560475 C617.19078938 306.94492741 617.19694944 310.51416599 617.21146011 314.08346176 C617.22750932 318.06330722 617.22798158 322.04306963 617.22705078 326.02294922 C617.23424133 327.2126532 617.24143188 328.40235718 617.24884033 329.62811279 C617.246091 330.70787384 617.24334167 331.78763489 617.24050903 332.90011597 C617.24327441 334.31322461 617.24327441 334.31322461 617.24609566 335.75488091 C617 338 617 338 615 340 C612.72265625 340.30078125 612.72265625 340.30078125 610.0625 340.3125 C609.18722656 340.32925781 608.31195312 340.34601563 607.41015625 340.36328125 C604.47708296 339.92118106 603.80556264 339.30759355 602 337 C601.51429749 334.81175232 601.51429749 334.81175232 601.35571289 332.22045898 C601.28862122 331.23905945 601.22152954 330.25765991 601.15240479 329.246521 C601.09308777 328.17388 601.03377075 327.10123901 600.97265625 325.99609375 C600.89891785 324.87019836 600.82517944 323.74430298 600.74920654 322.58428955 C600.50806483 318.86936436 600.28558202 315.15354946 600.0625 311.4375 C599.72972668 306.23399644 599.38765557 301.03110941 599.046875 295.828125 C598.96079111 294.49326653 598.87479788 293.15840221 598.78889465 291.8235321 C597.87785797 277.74470795 596.73384954 263.68632264 595.55618286 249.62765503 C595.39081411 247.65126669 595.22666788 245.67477565 595.06378174 243.69818115 C594.91910244 241.94301588 594.77194185 240.18805126 594.62103271 238.43341064 C593.84172312 228.95916261 593.47558221 219.51164426 593 210 C573.2 210 553.4 210 533 210 C533 213.63 533 217.26 533 221 C532.79584389 224.72161389 532.56238465 228.42818669 532.28149414 232.14355469 C532.20507187 233.19705612 532.1286496 234.25055756 532.0499115 235.33598328 C531.79892357 238.78158138 531.5421868 242.22672281 531.28515625 245.671875 C531.10790853 248.08317025 530.93094679 250.49448654 530.7542572 252.90582275 C530.38433862 257.94244991 530.01169539 262.97886548 529.63696289 268.01513672 C529.15732035 274.46293929 528.68338643 280.91114566 528.21134281 287.35950851 C527.84690435 292.33192782 527.48001705 297.304164 527.1123333 302.2763443 C526.93668942 304.65410023 526.76167161 307.03190251 526.58729744 309.40975189 C526.34323221 312.731359 526.09600721 316.05271608 525.84790039 319.37402344 C525.77668976 320.35080551 525.70547913 321.32758759 525.6321106 322.33396912 C524.56906976 336.43093024 524.56906976 336.43093024 522 339 C519.46875 339.30078125 519.46875 339.30078125 516.5 339.3125 C515.5203125 339.32925781 514.540625 339.34601563 513.53125 339.36328125 C512.27828125 339.18345703 512.27828125 339.18345703 511 339 C509 336 509 336 509 330 C502.07 330 495.14 330 488 330 C488.0928125 333.1246875 488.0928125 333.1246875 488.1875 336.3125 C488.37135447 342.50226721 488.37135447 342.50226721 486.75317383 344.67114258 C484.5682836 346.32722913 483.37724413 346.38634163 480.65625 346.3984375 C479.82222656 346.40230469 478.98820312 346.40617187 478.12890625 346.41015625 C476.82759766 346.39275391 476.82759766 346.39275391 475.5 346.375 C474.63246094 346.38660156 473.76492188 346.39820313 472.87109375 346.41015625 C472.03707031 346.40628906 471.20304687 346.40242188 470.34375 346.3984375 C469.58255859 346.39505371 468.82136719 346.39166992 468.03710938 346.38818359 C466 346 466 346 463 343 C463 338.71 463 334.42 463 330 C357.07 330 251.14 330 142 330 C142 334.29 142 338.58 142 343 C138.61917925 346.38082075 138.61917925 346.38082075 134.65625 346.3984375 C133.82222656 346.40230469 132.98820313 346.40617187 132.12890625 346.41015625 C130.82759766 346.39275391 130.82759766 346.39275391 129.5 346.375 C128.63246094 346.38660156 127.76492187 346.39820313 126.87109375 346.41015625 C126.03707031 346.40628906 125.20304688 346.40242188 124.34375 346.3984375 C123.58255859 346.39505371 122.82136719 346.39166992 122.03710938 346.38818359 C119.45273573 345.89571546 118.56056129 345.09164715 117 343 C116.59256208 338.63769798 116.86959364 334.39034742 117 330 C109.41 330 101.82 330 94 330 C93.67 332.64 93.34 335.28 93 338 C90.12814734 340.87185266 88.12508355 340.25381452 84.10351562 340.25878906 C83.39442551 340.2622937 82.68533539 340.26579834 81.95475769 340.26940918 C79.60515625 340.27822921 77.25585463 340.27237652 74.90625 340.265625 C73.27722109 340.26697158 71.64819257 340.26891204 70.01916504 340.27142334 C66.60274433 340.27437497 63.18642811 340.27007577 59.77001953 340.26074219 C55.38482599 340.24934758 50.99987724 340.25590686 46.61469269 340.26788712 C43.25016425 340.27510471 39.88569411 340.27281826 36.52116394 340.26763153 C34.90398632 340.26629475 33.28680345 340.26794374 31.66963196 340.27259064 C29.41177291 340.27765428 27.15431356 340.26994826 24.89648438 340.25878906 C23.61012085 340.25719788 22.32375732 340.25560669 20.99841309 340.25396729 C18 340 18 340 16 338 C15.55566915 335.5401439 15.22415222 333.15625734 14.96484375 330.67578125 C14.88126114 329.93732468 14.79767853 329.1988681 14.71156311 328.43803406 C14.53529388 326.86563819 14.36325058 325.29276381 14.19506836 323.71948242 C13.94321545 321.36591105 13.67894921 319.01402331 13.41210938 316.66210938 C12.46874787 308.20906295 11.73800607 299.77511191 11.21704102 291.28491211 C10.93706461 287.04747397 10.50246325 282.84098067 10 278.625 C9.83333333 277.1796875 9.66666667 275.734375 9.5 274.2890625 C9.24238033 272.07159292 8.98256745 269.85447805 8.71704102 267.63793945 C8.10241355 262.37413699 7.91584331 257.30187133 8 252 C7.0925 252.0825 6.185 252.165 5.25 252.25 C2 252 2 252 -0.17211914 250.37133789 C-2.51316246 247.33426647 -2.50255791 245.61485797 -2.49609375 241.80859375 C-2.49673828 240.61685547 -2.49738281 239.42511719 -2.49804688 238.19726562 C-2.47806641 236.95654297 -2.45808594 235.71582031 -2.4375 234.4375 C-2.44458984 233.19291016 -2.45167969 231.94832031 -2.45898438 230.66601562 C-2.39454799 221.5110928 -2.39454799 221.5110928 -0.7255249 219.34906006 C1.37535195 217.70654012 2.37296526 217.63444447 5.01245117 217.65942383 C5.81305466 217.65965042 6.61365814 217.65987701 7.43852234 217.66011047 C8.29798965 217.67559433 9.15745697 217.69107819 10.04296875 217.70703125 C11.36836418 217.71339851 11.36836418 217.71339851 12.72053528 217.71989441 C15.54316661 217.73668957 18.36508441 217.77434303 21.1875 217.8125 C23.10090115 217.82754577 25.01431349 217.84123436 26.92773438 217.85351562 C31.61876459 217.88659581 36.30926131 217.9383837 41 218 C40.69409149 205.75550754 40.02438899 194.68118102 36 183 C35.62359375 181.76507813 35.2471875 180.53015625 34.859375 179.2578125 C33.56157988 175.68496689 32.39623378 172.95457952 30 170 C26.72845054 168.76925294 23.92515176 168.50296688 20.44140625 168.296875 C6.81940087 167.12176443 -5.61703064 157.2180929 -15 148 C-15.78632812 147.23816406 -16.57265625 146.47632813 -17.3828125 145.69140625 C-24.56240433 138.28060723 -31.21237322 128.088641 -32.375 117.625 C-32 114 -32 114 -29.9375 111.125 C-26.37068192 108.54474862 -24.38376638 108.21559507 -20 108 C-19.23429687 107.96132813 -18.46859375 107.92265625 -17.6796875 107.8828125 C-4.68957432 107.51632028 7.75515408 110.98433598 17.75 119.5 C23.44091819 125.00204212 27.23551055 131.05838824 31 138 C31.43183594 138.77859375 31.86367187 139.5571875 32.30859375 140.359375 C36.40150496 148.09542696 37.26589505 155.06542181 37.55859375 163.6953125 C37.84277253 167.48678507 37.84277253 167.48678507 41 172 C41.33 152.53 41.66 133.06 42 113 C39.69 112.67 37.38 112.34 35 112 C12.90018172 100.05587856 -1.75900264 75.0511604 -8.96875 51.765625 C-12.9641371 37.17640847 -16.83583028 19.11902282 -10.16796875 4.8125 C-7.24686843 0.27942124 -5.52226862 -0.54473673 0 0 Z " fill="#BAB597" transform="translate(105,206)"/>
<path d="M0 0 C0.87391388 0.00459229 1.74782776 0.00918457 2.64822388 0.01391602 C15.96741445 0.11004502 28.61454114 0.76645366 41.1875 5.5625 C42.31502686 5.98861572 42.31502686 5.98861572 43.46533203 6.42333984 C68.63404073 16.33080038 85.68211674 35.64558564 96.58203125 59.89453125 C101.28793331 72.50726575 102.78179097 84.97061259 102.68920898 98.31591797 C102.69300545 99.90960158 102.69851629 101.50328187 102.70558167 103.09695435 C102.71936499 107.36475271 102.70849646 111.63214033 102.69187045 115.89991522 C102.67788608 120.38543762 102.68449382 124.87093941 102.68800354 129.35647583 C102.69069128 136.8690647 102.67734116 144.38149244 102.65405273 151.89404297 C102.62731601 160.57913911 102.62574408 169.26396845 102.6374411 177.94909179 C102.6482062 186.3282086 102.64205058 194.70722892 102.62788582 203.08633804 C102.62212861 206.6453085 102.62220625 210.20420829 102.62695122 213.76317978 C102.6317127 217.94128005 102.62165429 222.11908629 102.59999657 226.29713058 C102.59442216 227.83102934 102.59396939 229.36495632 102.59894943 230.89885712 C102.60488414 232.98822869 102.59243489 235.07669524 102.57518005 237.16598511 C102.57153521 238.92068273 102.57153521 238.92068273 102.56781673 240.71082878 C102.1875 243.5625 102.1875 243.5625 101.01800156 245.43973446 C98.43931684 247.02140935 96.53018092 246.93137023 93.51179504 246.92326355 C91.7386367 246.92944954 91.7386367 246.92944954 89.92965698 246.9357605 C88.63133942 246.92497467 87.33302185 246.91418884 85.99536133 246.90307617 C84.61562621 246.90223003 83.23588973 246.90270478 81.8561554 246.90440369 C78.10840069 246.9052656 74.36093313 246.88760838 70.61324525 246.86668181 C66.69747508 246.84794754 62.78169857 246.84616714 58.8658905 246.84260559 C51.44982326 246.83327555 44.03388845 246.80864885 36.61787957 246.77855712 C28.17542583 246.74504291 19.73296582 246.72853461 11.29046214 246.71347082 C-6.07726855 246.68210008 -23.44487028 246.62932101 -40.8125 246.5625 C-40.78929687 245.68207031 -40.76609375 244.80164063 -40.7421875 243.89453125 C-40.72414062 242.73308594 -40.70609375 241.57164062 -40.6875 240.375 C-40.66429687 239.22644531 -40.64109375 238.07789063 -40.6171875 236.89453125 C-40.81012268 233.603057 -41.26110724 231.45563785 -42.8125 228.5625 C-48.22403566 225.85673217 -53.65463422 225.70734421 -59.39453125 227.26171875 C-69.93471818 231.14039219 -79.43593487 238.24494039 -88.0234375 245.40625 C-90.2766438 246.86247066 -91.77256661 246.96423846 -94.4375 246.9375 C-95.21351563 246.94523438 -95.98953125 246.95296875 -96.7890625 246.9609375 C-97.45679688 246.82945312 -98.12453125 246.69796875 -98.8125 246.5625 C-101.18314372 243.00653441 -101.06565076 241.49833998 -101.07319641 237.27987671 C-101.08028122 235.96246994 -101.08736603 234.64506317 -101.09466553 233.28773499 C-101.09237144 231.82382168 -101.08986171 230.3599087 -101.0871582 228.89599609 C-101.091505 227.35665133 -101.09668804 225.81730873 -101.10264587 224.27796936 C-101.11606518 220.08909835 -101.11661024 215.90031744 -101.11408257 211.71142912 C-101.11301271 208.20607549 -101.11789775 204.70074007 -101.122688 201.19539034 C-101.13379785 192.90954329 -101.13421531 184.62374153 -101.12817383 176.33789062 C-101.12216116 167.82492736 -101.13437234 159.31213051 -101.1557439 150.79919565 C-101.17345535 143.4715309 -101.17934548 136.1439186 -101.17610615 128.81623328 C-101.17430489 124.44889859 -101.17681056 120.08168202 -101.19082069 115.71436691 C-101.20354676 111.59225201 -101.20131794 107.47039167 -101.18840981 103.34827995 C-101.18607446 101.84928864 -101.18866687 100.35027861 -101.19703293 98.85130882 C-101.33177429 72.79228648 -94.44176246 50.1111964 -76.8125 30.5625 C-76.05324219 29.70914063 -75.29398438 28.85578125 -74.51171875 27.9765625 C-54.78341162 6.98900172 -27.98729605 -0.29648337 0 0 Z " fill="#C8C192" transform="translate(280.8125,15.4375)"/>
<path d="M0 0 C1.84844877 -0.00571935 3.69689402 -0.01268958 5.54533386 -0.02079773 C10.51223721 -0.0385678 15.47896236 -0.037592 20.4458878 -0.03185534 C24.6131408 -0.02874107 28.78036065 -0.03488034 32.94760889 -0.04089409 C42.78606481 -0.05488354 52.62443378 -0.05342368 62.46289062 -0.04199219 C72.57124955 -0.03050579 82.67934331 -0.04460829 92.78766733 -0.07138866 C101.50922595 -0.09361934 110.23070176 -0.10016681 118.95228666 -0.09431225 C124.1426797 -0.09096035 129.33290269 -0.09323967 134.52327156 -0.11056328 C139.40483559 -0.1261494 144.28600941 -0.12194893 149.16755867 -0.10325813 C150.94595267 -0.09960487 152.72437637 -0.10258391 154.50274277 -0.11314392 C168.81846503 -0.19158255 182.55746113 1.30711902 195.38256836 8.27905273 C196.04780518 8.62709961 196.71304199 8.97514648 197.3984375 9.33374023 C202.26599809 11.93519224 206.69555447 14.79550787 210.88256836 18.40405273 C211.94991211 19.24129883 211.94991211 19.24129883 213.03881836 20.09545898 C226.49808562 31.13482374 234.9171868 47.44377694 237.88256836 64.40405273 C238.07077148 65.41983398 238.25897461 66.43561523 238.45288086 67.48217773 C239.06904327 73.10606012 238.98684268 78.68916632 238.94506836 84.34155273 C238.94055664 85.50235352 238.93604492 86.6631543 238.93139648 87.85913086 C238.91967483 90.70749208 238.90326596 93.55574496 238.88256836 96.40405273 C238.29306396 96.51797363 237.70355957 96.63189453 237.09619141 96.74926758 C227.81901772 98.65456227 220.78791572 102.2898125 215.13647461 110.08374023 C211.39727852 117.00300029 210.42592495 122.84055519 210.37084961 130.59155273 C210.35289841 131.53466309 210.3349472 132.47777344 210.31645203 133.44946289 C210.26267192 136.43428195 210.22855747 139.41894409 210.19506836 142.40405273 C210.16186675 144.43923067 210.12737449 146.47438798 210.09155273 148.50952148 C210.0069642 153.47425141 209.93999972 158.43893741 209.88256836 163.40405273 C208.48458008 162.80657227 208.48458008 162.80657227 207.05834961 162.19702148 C192.64824486 156.1530566 179.21871142 153.92027759 163.69506836 153.27905273 C162.14358579 153.2058926 160.59215266 153.13167619 159.04077148 153.05639648 C154.90734126 152.85983376 150.77324378 152.68626439 146.6385498 152.51861572 C143.71334934 152.39701849 140.78873516 152.26467349 137.86401367 152.13208008 C121.57381944 151.4186879 105.31190937 151.2461546 89.00756836 151.27905273 C87.72828461 151.27993896 86.44900085 151.2808252 85.13095093 151.28173828 C68.11004155 151.29552093 51.10286504 151.44028963 34.09204102 152.0480957 C25.01571597 152.3718798 15.96301072 152.45794704 6.88256836 152.40405273 C7.37217041 151.49518311 7.86177246 150.58631348 8.36621094 149.64990234 C11.17662492 143.6340508 9.91912322 137.66470906 8.69506836 131.34155273 C7.24316782 123.58520534 5.95551526 115.80620485 4.70999146 108.0144043 C4.3824366 105.96572868 4.05350445 103.91727886 3.72412109 101.86889648 C2.95241302 97.06929728 2.18118358 92.26962181 1.4128418 87.46948242 C0.17867036 79.78144052 -1.11411351 72.10712841 -2.61743164 64.46655273 C-2.83399414 63.3644043 -3.05055664 62.26225586 -3.27368164 61.12670898 C-4.14362697 58.3195243 -4.82354415 57.17713413 -7.11743164 55.40405273 C-10.094108 53.91571456 -13.14662316 54.22510276 -16.4128418 54.19873047 C-17.16415878 54.18883087 -17.91547577 54.17893127 -18.68955994 54.16873169 C-21.1785057 54.13708751 -23.66747057 54.11234779 -26.15649414 54.08764648 C-27.87999982 54.06707947 -29.60350043 54.04608307 -31.32699585 54.02467346 C-35.86763404 53.96942666 -40.40831794 53.92002891 -44.94903564 53.87182617 C-49.58072996 53.82163017 -54.21235773 53.76593419 -58.84399414 53.71069336 C-67.93508315 53.6030799 -77.02622989 53.50164201 -86.11743164 53.40405273 C-85.48417526 51.80306404 -84.84914956 50.20277511 -84.21337891 48.6027832 C-83.85993912 47.71154755 -83.50649933 46.82031189 -83.14234924 45.90206909 C-75.15851381 26.44318629 -59.19603407 13.20107727 -40.24880886 4.95398808 C-36.35922531 3.41225372 -32.447356 2.43906971 -28.32789612 1.73399353 C-27.2309289 1.54530666 -27.2309289 1.54530666 -26.11180073 1.35280794 C-17.42414768 -0.01939802 -8.77473851 -0.02491575 0 0 Z " fill="#CDCAB2" transform="translate(340.117431640625,278.595947265625)"/>
<path d="M0 0 C1.89286743 -0.01268921 1.89286743 -0.01268921 3.82397461 -0.02563477 C5.22509894 -0.01980167 6.626222 -0.01365715 8.02734375 -0.00723267 C9.50073638 -0.01129709 10.97412597 -0.01663824 12.44750977 -0.02316284 C16.45161387 -0.03685775 20.45548649 -0.03152892 24.45959473 -0.02202559 C28.64624667 -0.0144402 32.83287854 -0.02147147 37.01953125 -0.02618408 C44.05081752 -0.03164492 51.08200932 -0.02444146 58.11328125 -0.01016235 C66.24708629 0.00616482 74.38066576 0.00087654 82.51446533 -0.01564157 C89.49287856 -0.02924713 96.4712238 -0.03118067 103.449646 -0.02332556 C107.6197886 -0.01864391 111.78982511 -0.01803764 115.95996094 -0.02793503 C119.88014304 -0.03658894 123.80003377 -0.03061189 127.72018433 -0.01325226 C129.16054805 -0.00927895 130.60093622 -0.01043588 132.04129028 -0.01704025 C134.00408056 -0.02521165 135.96692431 -0.01315777 137.9296875 0 C139.57892212 0.00169662 139.57892212 0.00169662 141.26147461 0.00342751 C143.96484375 0.38095093 143.96484375 0.38095093 145.81823158 1.5109539 C147.50625077 4.26392561 147.34263407 6.46526436 147.34579468 9.68185425 C147.35047465 10.32341855 147.35515462 10.96498284 147.35997641 11.62598848 C147.37195935 13.77954453 147.3624569 15.93246808 147.35302734 18.08602905 C147.3570916 19.62838615 147.36243266 21.17074034 147.36895752 22.71308899 C147.38265435 26.90520021 147.37732278 31.09709038 147.36782026 35.28920555 C147.36023589 39.67204773 147.36726587 44.05487072 147.37197876 48.43771362 C147.37743989 55.79854742 147.37023536 63.15929098 147.35595703 70.52011108 C147.33962981 79.03563369 147.34491807 87.55094084 147.36143625 96.06645823 C147.37504097 103.37183177 147.37697575 110.67714037 147.36912024 117.98252249 C147.36443813 122.34828315 147.36383359 126.71394247 147.37372971 131.07969666 C147.38238239 135.18372774 147.37640878 139.28748046 147.35904694 143.3914814 C147.35507297 144.89957275 147.35623166 146.40768745 147.36283493 147.91576958 C147.37100508 149.97084744 147.36078528 152.02502733 147.34579468 154.08004761 C147.3446636 155.23115776 147.34353252 156.38226791 147.34236717 157.56826019 C146.96484375 160.38095093 146.96484375 160.38095093 145.81823158 162.25094795 C143.13929118 163.88428695 141.05785032 163.75868382 137.9296875 163.76190186 C136.66777588 163.77036133 135.40586426 163.7788208 134.10571289 163.78753662 C132.70458856 163.78170352 131.3034655 163.775559 129.90234375 163.76913452 C128.42895112 163.77319895 126.95556153 163.7785401 125.48217773 163.7850647 C121.47807363 163.7987596 117.47420101 163.79343077 113.47009277 163.78392744 C109.28344083 163.77634206 105.09680896 163.78337333 100.91015625 163.78808594 C93.87886998 163.79354677 86.84767818 163.78634331 79.81640625 163.77206421 C71.68260121 163.75573703 63.54902174 163.76102531 55.41522217 163.77754343 C48.43680894 163.79114899 41.4584637 163.79308252 34.4800415 163.78522742 C30.3098989 163.78054576 26.13986239 163.7799395 21.96972656 163.78983688 C18.04954446 163.7984908 14.12965373 163.79251375 10.20950317 163.77515411 C8.76913945 163.7711808 7.32875128 163.77233774 5.88839722 163.77894211 C3.92560694 163.78711351 1.96276319 163.77505962 0 163.76190186 C-1.64923462 163.76020524 -1.64923462 163.76020524 -3.33178711 163.75847435 C-6.03515625 163.38095093 -6.03515625 163.38095093 -7.88854408 162.25094795 C-9.57656327 159.49797624 -9.41294657 157.2966375 -9.41610718 154.08004761 C-9.42078715 153.43848331 -9.42546712 152.79691901 -9.43028891 152.13591337 C-9.44227185 149.98235732 -9.4327694 147.82943377 -9.42333984 145.6758728 C-9.4274041 144.1335157 -9.43274516 142.59116152 -9.43927002 141.04881287 C-9.45296685 136.85670164 -9.44763528 132.66481148 -9.43813276 128.4726963 C-9.43054839 124.08985413 -9.43757837 119.70703114 -9.44229126 115.32418823 C-9.44775239 107.96335443 -9.44054786 100.60261088 -9.42626953 93.24179077 C-9.40994231 84.72626816 -9.41523057 76.21096102 -9.43174875 67.69544363 C-9.44535347 60.39007009 -9.44728825 53.08476148 -9.43943274 45.77937937 C-9.43475063 41.41361871 -9.43414609 37.04795939 -9.44404221 32.6822052 C-9.45269489 28.57817412 -9.44672128 24.4744214 -9.42935944 20.37042046 C-9.42538547 18.8623291 -9.42654416 17.35421441 -9.43314743 15.84613228 C-9.44131758 13.79105442 -9.43109778 11.73687453 -9.41610718 9.68185425 C-9.4149761 8.53074409 -9.41384502 7.37963394 -9.41267967 6.19364166 C-9.03515625 3.38095093 -9.03515625 3.38095093 -7.88854408 1.5109539 C-5.20960368 -0.1223851 -3.12816282 0.00321803 0 0 Z " fill="#D7E7E2" transform="translate(485.03515625,51.619049072265625)"/>
<path d="M0 0 C1.24660149 -0.00744736 1.24660149 -0.00744736 2.51838684 -0.01504517 C5.27553121 -0.0296838 8.03261803 -0.03647196 10.78979492 -0.04199219 C12.70309959 -0.04774268 14.61640424 -0.05350042 16.52970886 -0.05926514 C20.54552479 -0.06978027 24.56132067 -0.07561944 28.57714844 -0.07910156 C33.7221177 -0.08458433 38.86682205 -0.10860557 44.01170826 -0.13707352 C47.96568067 -0.15570166 51.91958933 -0.16090561 55.87360191 -0.16243744 C57.77021418 -0.1654646 59.6668253 -0.17349527 61.56339455 -0.18662262 C64.21824882 -0.20368518 66.87245683 -0.2018023 69.52734375 -0.1953125 C70.31038879 -0.20452728 71.09343384 -0.21374207 71.90020752 -0.22323608 C76.42566202 -0.18859763 79.37320953 0.32991663 82.95776367 3.16113281 C84.97932914 6.89973306 85.6431443 10.95027222 86.45776367 15.09863281 C86.69495117 16.28328125 86.93213867 17.46792969 87.17651367 18.68847656 C88.07121593 23.56092184 88.72498809 28.46681751 89.41333008 33.37182617 C90.32993406 39.75147208 91.36392985 46.11169384 92.39526367 52.47363281 C92.61559387 53.84219831 92.83588977 55.21076932 93.05615234 56.5793457 C94.41523612 64.99273038 95.85754712 73.38377105 97.47729492 81.75097656 C98.37785815 88.14277896 98.62728282 92.57624181 94.95776367 98.16113281 C103.67574138 98.21695764 112.36016563 98.11599226 121.07373047 97.80493164 C165.36558153 96.2308856 209.7089216 96.75043953 253.95776367 99.16113281 C255.0718309 99.21912552 255.0718309 99.21912552 256.20840454 99.27828979 C263.34175944 99.65531486 270.21194609 100.08743638 277.14526367 101.84863281 C278.35569336 102.14125 279.56612305 102.43386719 280.81323242 102.73535156 C286.41452772 104.66228161 291.65964563 107.51207379 296.95776367 110.16113281 C296.95776367 123.69113281 296.95776367 137.22113281 296.95776367 151.16113281 C202.57776367 151.16113281 108.19776367 151.16113281 10.95776367 151.16113281 C10.62776367 123.11113281 10.29776367 95.06113281 9.95776367 66.16113281 C3.12463519 52.43917758 3.12463519 52.43917758 -8.78051758 45.50097656 C-9.76705322 45.06003662 -10.75358887 44.61909668 -11.77001953 44.16479492 C-12.89476685 43.66798218 -12.89476685 43.66798218 -14.04223633 43.16113281 C-14.14131761 37.98337352 -14.21380439 32.80616934 -14.26196289 27.62768555 C-14.28204419 25.86717106 -14.30931512 24.10672299 -14.34399414 22.34643555 C-14.39266745 19.81184479 -14.41523938 17.27813786 -14.43286133 14.74316406 C-14.45350647 13.95964066 -14.47415161 13.17611725 -14.49542236 12.36885071 C-14.49696826 8.5804542 -14.20254495 6.41212501 -12.14282227 3.18725586 C-8.37310042 -0.44883451 -4.98398436 0.00706028 0 0 Z " fill="#DED9BB" transform="translate(253.042236328125,331.8388671875)"/>
<path d="M0 0 C18.35562133 5.280732 32.80368164 19.97698182 42.03173828 36.21923828 C50.47239651 51.74272822 55.17570659 69.25564818 55.1875 86.875 C55.19974609 87.83019531 55.21199219 88.78539062 55.22460938 89.76953125 C55.23477574 94.71038475 54.84982586 98.83071748 53.47875977 103.60595703 C52.2810204 109.59526464 52.50773861 115.90646831 52.375 122 C52.33675034 123.45705282 52.29769473 124.91408471 52.2578125 126.37109375 C52.16257494 129.91386926 52.07827103 133.4568043 52 137 C52.66 137 53.32 137 54 137 C54.37125 136.01 54.37125 136.01 54.75 135 C56 132 56 132 57.12890625 130.0625 C57.51949219 129.381875 57.91007812 128.70125 58.3125 128 C58.70050781 127.360625 59.08851563 126.72125 59.48828125 126.0625 C60.2891692 123.8700337 60.2891692 123.8700337 58.625 121.6953125 C58.08875 120.80585938 57.5525 119.91640625 57 119 C54.88534835 99.30872761 61.91451694 81.34947905 74 66 C85.15128977 53.40996561 105.78651808 36.04868904 122.9375 34.6875 C127.26712457 34.82046352 130.2440421 35.82154442 134 38 C136.81597627 42.16274753 136.6212674 47.16065395 136 52 C131.35732471 72.81646037 121.73770458 91.57188043 107 107 C106.45988281 107.61488281 105.91976562 108.22976563 105.36328125 108.86328125 C97.35836004 117.63441659 84.75335305 125.4659072 72.96875 127.53125 C68.36973597 129.80655168 67.62329898 133.38100271 66 138.0625 C65.66605225 138.97902344 65.33210449 139.89554688 64.98803711 140.83984375 C61.07904879 151.97267233 58.44934275 163.47106276 56 175 C55.81373047 175.75112061 55.62746094 176.50224121 55.43554688 177.27612305 C54.81996117 181.1259491 54.87740144 184.90863776 54.90234375 188.80078125 C54.9037587 189.63715622 54.90517365 190.47353119 54.90663147 191.33525085 C54.91220816 193.994371 54.92475635 196.6534055 54.9375 199.3125 C54.94251801 201.12044149 54.94708039 202.9283843 54.95117188 204.73632812 C54.96131709 209.15761125 54.98089697 213.57871028 55 218 C66.88 218 78.76 218 91 218 C91.03738281 223.58679688 91.07476562 229.17359375 91.11328125 234.9296875 C91.14358321 238.48440492 91.1747456 242.03907363 91.20898438 245.59375 C91.26316148 251.22686203 91.3142769 256.85987769 91.34643555 262.49316406 C91.37258412 267.03856901 91.41306695 271.58364744 91.46318626 276.12884903 C91.47977724 277.85659832 91.49133962 279.58440398 91.49761391 281.31222153 C91.47626357 293.41211072 91.47626357 293.41211072 94.32969666 305.10800171 C96.09089015 310.07914666 95.22584871 315.81649673 95 321 C94.93619141 322.89685547 94.93619141 322.89685547 94.87109375 324.83203125 C94.32609912 335.90585823 94.32609912 335.90585823 91 340 C87.8813324 340.61473083 87.8813324 340.61473083 83.98999023 340.59936523 C83.28075409 340.60330795 82.57151794 340.60725067 81.84078979 340.61131287 C79.49600639 340.61802713 77.15316872 340.58885826 74.80859375 340.55859375 C73.18099851 340.55434425 71.55339722 340.55201515 69.92579651 340.55152893 C66.5151116 340.54536116 63.10508284 340.52264918 59.69458008 340.48706055 C55.31721981 340.44175153 50.9404536 340.42703306 46.56288052 340.42332363 C43.20260225 340.41890055 39.84244935 340.40360714 36.48222542 340.3844471 C34.86784969 340.37555246 33.25346053 340.36882851 31.6390667 340.36428642 C29.38601937 340.35526888 27.13351596 340.33290176 24.88061523 340.30639648 C23.59726791 340.29575668 22.31392059 340.28511688 20.99168396 340.27415466 C18 340 18 340 16 338 C15.55566915 335.5401439 15.22415222 333.15625734 14.96484375 330.67578125 C14.88126114 329.93732468 14.79767853 329.1988681 14.71156311 328.43803406 C14.53529388 326.86563819 14.36325058 325.29276381 14.19506836 323.71948242 C13.94321545 321.36591105 13.67894921 319.01402331 13.41210938 316.66210938 C12.46874787 308.20906295 11.73800607 299.77511191 11.21704102 291.28491211 C10.93706461 287.04747397 10.50246325 282.84098067 10 278.625 C9.83333333 277.1796875 9.66666667 275.734375 9.5 274.2890625 C9.24238033 272.07159292 8.98256745 269.85447805 8.71704102 267.63793945 C8.10241355 262.37413699 7.91584331 257.30187133 8 252 C7.0925 252.0825 6.185 252.165 5.25 252.25 C2 252 2 252 -0.17211914 250.37133789 C-2.51316246 247.33426647 -2.50255791 245.61485797 -2.49609375 241.80859375 C-2.49673828 240.61685547 -2.49738281 239.42511719 -2.49804688 238.19726562 C-2.47806641 236.95654297 -2.45808594 235.71582031 -2.4375 234.4375 C-2.44458984 233.19291016 -2.45167969 231.94832031 -2.45898438 230.66601562 C-2.39454799 221.5110928 -2.39454799 221.5110928 -0.7255249 219.34906006 C1.37535195 217.70654012 2.37296526 217.63444447 5.01245117 217.65942383 C5.81305466 217.65965042 6.61365814 217.65987701 7.43852234 217.66011047 C8.29798965 217.67559433 9.15745697 217.69107819 10.04296875 217.70703125 C11.36836418 217.71339851 11.36836418 217.71339851 12.72053528 217.71989441 C15.54316661 217.73668957 18.36508441 217.77434303 21.1875 217.8125 C23.10090115 217.82754577 25.01431349 217.84123436 26.92773438 217.85351562 C31.61876459 217.88659581 36.30926131 217.9383837 41 218 C40.69409149 205.75550754 40.02438899 194.68118102 36 183 C35.62359375 181.76507813 35.2471875 180.53015625 34.859375 179.2578125 C33.56157988 175.68496689 32.39623378 172.95457952 30 170 C26.72845054 168.76925294 23.92515176 168.50296688 20.44140625 168.296875 C6.81940087 167.12176443 -5.61703064 157.2180929 -15 148 C-15.78632812 147.23816406 -16.57265625 146.47632813 -17.3828125 145.69140625 C-24.56240433 138.28060723 -31.21237322 128.088641 -32.375 117.625 C-32 114 -32 114 -29.9375 111.125 C-26.37068192 108.54474862 -24.38376638 108.21559507 -20 108 C-19.23429687 107.96132813 -18.46859375 107.92265625 -17.6796875 107.8828125 C-4.68957432 107.51632028 7.75515408 110.98433598 17.75 119.5 C23.44091819 125.00204212 27.23551055 131.05838824 31 138 C31.43183594 138.77859375 31.86367187 139.5571875 32.30859375 140.359375 C36.40150496 148.09542696 37.26589505 155.06542181 37.55859375 163.6953125 C37.84277253 167.48678507 37.84277253 167.48678507 41 172 C41.33 152.53 41.66 133.06 42 113 C39.69 112.67 37.38 112.34 35 112 C12.90018172 100.05587856 -1.75900264 75.0511604 -8.96875 51.765625 C-12.9641371 37.17640847 -16.83583028 19.11902282 -10.16796875 4.8125 C-7.24686843 0.27942124 -5.52226862 -0.54473673 0 0 Z " fill="#B77C4E" transform="translate(105,206)"/>
<path d="M0 0 C2.68013916 2.2111148 5.11089685 4.5406689 7.5 7.0625 C8.49 8.0525 8.49 8.0525 9.5 9.0625 C9.5825 7.99 9.665 6.9175 9.75 5.8125 C10.59174008 1.60379962 11.22437324 0.67754203 14.5 -1.9375 C17.453125 -2.94921875 17.453125 -2.94921875 20.75 -3.625 C22.36648438 -3.97111328 22.36648438 -3.97111328 24.015625 -4.32421875 C40.07808112 -7.15135509 59.85327656 -9.00621577 73.9375 0.8125 C75.15683261 1.85987545 76.34533094 2.94423942 77.5 4.0625 C78.11359375 4.63742187 78.7271875 5.21234375 79.359375 5.8046875 C90.34819768 17.12223565 90.78489121 30.94648433 90.65234375 45.74609375 C90.33163899 63.10920862 87.74220932 80.03028249 84.5 97.0625 C85.72074219 96.90265625 86.94148437 96.7428125 88.19921875 96.578125 C91.24087377 96.20017976 94.24525538 95.8788188 97.3125 95.8125 C98.04082031 95.78671875 98.76914062 95.7609375 99.51953125 95.734375 C102.1583545 96.17157648 102.87514233 96.95264822 104.5 99.0625 C104.88818359 101.55859375 104.88818359 101.55859375 104.8984375 104.5 C104.90230469 105.55960938 104.90617188 106.61921875 104.91015625 107.7109375 C104.89275391 109.36996094 104.89275391 109.36996094 104.875 111.0625 C104.88660156 112.16851563 104.89820313 113.27453125 104.91015625 114.4140625 C104.90628906 115.47367188 104.90242187 116.53328125 104.8984375 117.625 C104.89505371 118.59566406 104.89166992 119.56632813 104.88818359 120.56640625 C104.43580736 123.47527076 103.83374071 124.32858794 101.5 126.0625 C91.47651494 129.84914991 80.25031069 130.1899935 69.6484375 130.5546875 C68.21613548 130.6047419 68.21613548 130.6047419 66.75489807 130.6558075 C62.78073302 130.78883489 58.80661643 130.91343611 54.83154297 131.01611328 C51.89468504 131.09533397 48.95941824 131.19827369 46.0234375 131.3046875 C45.12555511 131.32151581 44.22767273 131.33834412 43.30258179 131.35568237 C39.67339975 131.50027217 37.14517072 131.70952372 33.93188477 133.4675293 C31.64069738 137.61979369 31.99691563 141.6778724 32.06640625 146.33984375 C32.05680086 148.40039138 32.04703014 150.46093824 32.03710938 152.52148438 C32.04571281 155.7649801 32.06255656 159.00827821 32.0847168 162.25170898 C32.09923349 165.38564908 32.08398621 168.51844436 32.06640625 171.65234375 C32.09112755 173.10410255 32.09112755 173.10410255 32.11634827 174.58518982 C32.08279458 179.10896516 31.97423099 181.3836183 29.328125 185.17163086 C26.13253009 187.3081884 24.49418367 187.70497974 20.68359375 187.7265625 C19.58982422 187.73300781 18.49605469 187.73945312 17.36914062 187.74609375 C16.23669922 187.72675781 15.10425781 187.70742188 13.9375 187.6875 C12.80119141 187.70683594 11.66488281 187.72617187 10.49414062 187.74609375 C8.85541992 187.73642578 8.85541992 187.73642578 7.18359375 187.7265625 C6.18900146 187.72092285 5.19440918 187.7152832 4.16967773 187.70947266 C1.5 187.0625 1.5 187.0625 -0.82202148 185.1262207 C-3.17435383 180.83123763 -3.07485531 177.20393666 -3.03125 172.37890625 C-3.03699036 170.97921852 -3.03699036 170.97921852 -3.04284668 169.55125427 C-3.04556312 167.5819287 -3.03822072 165.61256688 -3.02148438 163.64331055 C-3.00009493 160.63833615 -3.02128254 157.63575908 -3.046875 154.63085938 C-3.0442312 152.71353642 -3.03910515 150.79621494 -3.03125 148.87890625 C-3.03934692 147.98498672 -3.04744385 147.0910672 -3.05578613 146.1700592 C-2.96471243 140.07157628 -1.91455078 136.47705078 2.5 132.0625 C1.75468018 132.04791748 1.00936035 132.03333496 0.24145508 132.01831055 C-16.02437895 131.66950165 -32.21838391 130.92122435 -48.4375 129.625 C-49.63129776 129.53283707 -49.63129776 129.53283707 -50.84921265 129.43881226 C-53.13849435 129.26019566 -55.42669468 129.07143998 -57.71484375 128.87890625 C-59.02573975 128.77006104 -60.33663574 128.66121582 -61.68725586 128.54907227 C-65.8303814 128.0203376 -69.51159885 127.30828993 -73.5 126.0625 C-76.61496916 121.39004625 -75.82850857 116.55664246 -75.8125 111.0625 C-75.82861328 109.95648437 -75.84472656 108.85046875 -75.86132812 107.7109375 C-75.86197266 106.65132812 -75.86261719 105.59171875 -75.86328125 104.5 C-75.86626221 103.52933594 -75.86924316 102.55867187 -75.87231445 101.55859375 C-75.5 99.0625 -75.5 99.0625 -74.11474609 97.24316406 C-71.92258801 95.64031004 -70.50578834 95.72793836 -67.8125 95.8125 C-67.00425781 95.82796875 -66.19601562 95.8434375 -65.36328125 95.859375 C-63.1716808 96.01485007 -60.98620767 96.25896772 -58.80737305 96.54174805 C-54.78375773 97.05172612 -50.76802452 97.35274045 -46.71875 97.59765625 C-45.67031921 97.66212196 -45.67031921 97.66212196 -44.60070801 97.72789001 C-42.40060863 97.86263054 -40.20031776 97.99387922 -38 98.125 C-36.49477751 98.21656446 -34.98956902 98.30835932 -33.484375 98.40039062 C-29.8230744 98.62375302 -26.16159363 98.84398759 -22.5 99.0625 C-22.44521484 98.45011475 -22.39042969 97.83772949 -22.33398438 97.20678711 C-21.77826679 91.29776969 -20.97964946 85.47690974 -20 79.625 C-18.29610228 68.99436059 -17.38090547 58.64653686 -17.1875 47.875 C-17.15760986 46.93551514 -17.12771973 45.99603027 -17.09692383 45.02807617 C-17.04779792 39.05954294 -17.65508514 33.85910424 -21.5 29.0625 C-28.6657803 24.70489486 -38.28122642 26.85374459 -46 28.625 C-47.68609375 29.06005859 -47.68609375 29.06005859 -49.40625 29.50390625 C-52.53203401 30.06828392 -54.48267853 29.97534907 -57.5 29.0625 C-60.15547556 26.40702444 -58.78406152 18.81997737 -58.8125 15.25 C-58.84150391 14.04794922 -58.87050781 12.84589844 -58.90039062 11.60742188 C-58.90876953 10.45177734 -58.91714844 9.29613281 -58.92578125 8.10546875 C-58.94036377 7.04352295 -58.95494629 5.98157715 -58.9699707 4.88745117 C-58.38099551 1.34717485 -57.30713446 0.23350433 -54.5 -1.9375 C-51.77343699 -2.88944657 -49.30336778 -3.5999262 -46.5 -4.1875 C-45.71471924 -4.35443359 -44.92943848 -4.52136719 -44.12036133 -4.69335938 C-29.55430951 -7.50861049 -13.07575254 -8.04914415 0 0 Z " fill="#020202" transform="translate(477.5,597.9375)"/>
<path d="M0 0 C1.14533203 -0.00386719 2.29066406 -0.00773438 3.47070312 -0.01171875 C4.66759766 -0.00011719 5.86449219 0.01148438 7.09765625 0.0234375 C8.29068359 0.01183594 9.48371094 0.00023437 10.71289062 -0.01171875 C11.85951172 -0.00785156 13.00613281 -0.00398437 14.1875 0 C15.76132446 0.00507568 15.76132446 0.00507568 17.36694336 0.01025391 C20.16015625 0.3984375 20.16015625 0.3984375 24.16015625 3.3984375 C24.65515625 9.3384375 24.65515625 9.3384375 25.16015625 15.3984375 C53.21015625 15.7284375 81.26015625 16.0584375 110.16015625 16.3984375 C110.16015625 12.4384375 110.16015625 8.4784375 110.16015625 4.3984375 C113.16015625 0.3984375 113.16015625 0.3984375 115.93164062 -0.10327148 C117.02798828 -0.10141846 118.12433594 -0.09956543 119.25390625 -0.09765625 C120.44886719 -0.09830078 121.64382813 -0.09894531 122.875 -0.09960938 C124.12410156 -0.07962891 125.37320313 -0.05964844 126.66015625 -0.0390625 C127.90925781 -0.04615234 129.15835938 -0.05324219 130.4453125 -0.06054688 C139.48206485 0.00281762 139.48206485 0.00281762 142.02563477 1.48681641 C143.78669281 4.45412532 143.47659881 6.99583254 143.40625 10.41796875 C143.39436142 11.12105667 143.38247284 11.82414459 143.370224 12.54853821 C143.20872882 20.27163293 142.80645941 27.98831733 142.3605957 35.69946289 C142.22217109 38.09433126 142.09003547 40.48948346 141.95898438 42.88476562 C141.74820815 46.69340821 141.52423667 50.50104955 141.28900146 54.30825806 C141.16666907 56.29278394 141.0492604 58.27761153 140.93212891 60.26245117 C140.85655762 61.40818604 140.78098633 62.5539209 140.703125 63.734375 C140.64020264 64.71841309 140.57728027 65.70245117 140.51245117 66.71630859 C139.59613981 73.69246701 136.12725892 79.54422352 131.16015625 84.3984375 C123.61804514 89.27036021 116.09916019 89.54880791 107.3503418 89.55957031 C106.37881165 89.56453522 105.40728149 89.56950012 104.40631104 89.57461548 C101.2031584 89.58917979 98.00005526 89.59602921 94.796875 89.6015625 C92.56256612 89.60731824 90.32825724 89.61307592 88.09394836 89.61883545 C83.41264619 89.62932884 78.7313611 89.63518252 74.05004883 89.63867188 C68.06485291 89.64415599 62.07988453 89.66818949 56.09475994 89.69664383 C51.48010099 89.71530722 46.86549649 89.72047777 42.25080299 89.72200775 C40.04489713 89.72502594 37.83899203 89.73302619 35.6331234 89.74619293 C32.54129284 89.76333224 29.45001367 89.76135394 26.3581543 89.75488281 C25.00419304 89.76870499 25.00419304 89.76870499 23.62287903 89.7828064 C15.04035772 89.72680679 7.65949249 87.5883993 0.88671875 82.21875 C-2.08272774 79.0880666 -3.41919597 75.41156684 -4.83984375 71.3984375 C-5.16984375 70.7384375 -5.49984375 70.0784375 -5.83984375 69.3984375 C-6.05374502 67.0572213 -6.21006927 64.71066397 -6.33984375 62.36328125 C-6.38044922 61.65176407 -6.42105469 60.94024689 -6.46289062 60.20716858 C-6.59266736 57.91696801 -6.71638223 55.62648635 -6.83984375 53.3359375 C-6.92276937 51.85088864 -7.00609868 50.36586225 -7.08984375 48.88085938 C-7.2578467 45.89530516 -7.4231288 42.90961645 -7.58691406 39.92382812 C-7.75538748 36.87513574 -7.93217564 33.82708922 -8.11621094 30.77929688 C-8.16148926 30.02749649 -8.20676758 29.27569611 -8.25341797 28.50111389 C-8.33892921 27.0896204 -8.4254298 25.67818629 -8.51318359 24.26683044 C-9.70017497 4.63522043 -9.70017497 4.63522043 -7.68432617 1.73730469 C-5.08562527 -0.14903228 -3.19049439 0.01030062 0 0 Z " fill="#010101" transform="translate(238.83984375,704.6015625)"/>
<path d="M0 0 C1.89286743 -0.01268921 1.89286743 -0.01268921 3.82397461 -0.02563477 C5.22509894 -0.01980167 6.626222 -0.01365715 8.02734375 -0.00723267 C9.50073638 -0.01129709 10.97412597 -0.01663824 12.44750977 -0.02316284 C16.45161387 -0.03685775 20.45548649 -0.03152892 24.45959473 -0.02202559 C28.64624667 -0.0144402 32.83287854 -0.02147147 37.01953125 -0.02618408 C44.05081752 -0.03164492 51.08200932 -0.02444146 58.11328125 -0.01016235 C66.24708629 0.00616482 74.38066576 0.00087654 82.51446533 -0.01564157 C89.49287856 -0.02924713 96.4712238 -0.03118067 103.449646 -0.02332556 C107.6197886 -0.01864391 111.78982511 -0.01803764 115.95996094 -0.02793503 C119.88014304 -0.03658894 123.80003377 -0.03061189 127.72018433 -0.01325226 C129.16054805 -0.00927895 130.60093622 -0.01043588 132.04129028 -0.01704025 C134.00408056 -0.02521165 135.96692431 -0.01315777 137.9296875 0 C139.57892212 0.00169662 139.57892212 0.00169662 141.26147461 0.00342751 C143.96484375 0.38095093 143.96484375 0.38095093 145.81823158 1.5109539 C147.50625077 4.26392561 147.34263407 6.46526436 147.34579468 9.68185425 C147.35047465 10.32341855 147.35515462 10.96498284 147.35997641 11.62598848 C147.37195935 13.77954453 147.3624569 15.93246808 147.35302734 18.08602905 C147.3570916 19.62838615 147.36243266 21.17074034 147.36895752 22.71308899 C147.38265435 26.90520021 147.37732278 31.09709038 147.36782026 35.28920555 C147.36023589 39.67204773 147.36726587 44.05487072 147.37197876 48.43771362 C147.37743989 55.79854742 147.37023536 63.15929098 147.35595703 70.52011108 C147.33962981 79.03563369 147.34491807 87.55094084 147.36143625 96.06645823 C147.37504097 103.37183177 147.37697575 110.67714037 147.36912024 117.98252249 C147.36443813 122.34828315 147.36383359 126.71394247 147.37372971 131.07969666 C147.38238239 135.18372774 147.37640878 139.28748046 147.35904694 143.3914814 C147.35507297 144.89957275 147.35623166 146.40768745 147.36283493 147.91576958 C147.37100508 149.97084744 147.36078528 152.02502733 147.34579468 154.08004761 C147.3446636 155.23115776 147.34353252 156.38226791 147.34236717 157.56826019 C146.96484375 160.38095093 146.96484375 160.38095093 145.81823158 162.25094795 C143.13929118 163.88428695 141.05785032 163.75868382 137.9296875 163.76190186 C136.66777588 163.77036133 135.40586426 163.7788208 134.10571289 163.78753662 C132.70458856 163.78170352 131.3034655 163.775559 129.90234375 163.76913452 C128.42895112 163.77319895 126.95556153 163.7785401 125.48217773 163.7850647 C121.47807363 163.7987596 117.47420101 163.79343077 113.47009277 163.78392744 C109.28344083 163.77634206 105.09680896 163.78337333 100.91015625 163.78808594 C93.87886998 163.79354677 86.84767818 163.78634331 79.81640625 163.77206421 C71.68260121 163.75573703 63.54902174 163.76102531 55.41522217 163.77754343 C48.43680894 163.79114899 41.4584637 163.79308252 34.4800415 163.78522742 C30.3098989 163.78054576 26.13986239 163.7799395 21.96972656 163.78983688 C18.04954446 163.7984908 14.12965373 163.79251375 10.20950317 163.77515411 C8.76913945 163.7711808 7.32875128 163.77233774 5.88839722 163.77894211 C3.92560694 163.78711351 1.96276319 163.77505962 0 163.76190186 C-1.64923462 163.76020524 -1.64923462 163.76020524 -3.33178711 163.75847435 C-6.03515625 163.38095093 -6.03515625 163.38095093 -7.88854408 162.25094795 C-9.57656327 159.49797624 -9.41294657 157.2966375 -9.41610718 154.08004761 C-9.42078715 153.43848331 -9.42546712 152.79691901 -9.43028891 152.13591337 C-9.44227185 149.98235732 -9.4327694 147.82943377 -9.42333984 145.6758728 C-9.4274041 144.1335157 -9.43274516 142.59116152 -9.43927002 141.04881287 C-9.45296685 136.85670164 -9.44763528 132.66481148 -9.43813276 128.4726963 C-9.43054839 124.08985413 -9.43757837 119.70703114 -9.44229126 115.32418823 C-9.44775239 107.96335443 -9.44054786 100.60261088 -9.42626953 93.24179077 C-9.40994231 84.72626816 -9.41523057 76.21096102 -9.43174875 67.69544363 C-9.44535347 60.39007009 -9.44728825 53.08476148 -9.43943274 45.77937937 C-9.43475063 41.41361871 -9.43414609 37.04795939 -9.44404221 32.6822052 C-9.45269489 28.57817412 -9.44672128 24.4744214 -9.42935944 20.37042046 C-9.42538547 18.8623291 -9.42654416 17.35421441 -9.43314743 15.84613228 C-9.44131758 13.79105442 -9.43109778 11.73687453 -9.41610718 9.68185425 C-9.4149761 8.53074409 -9.41384502 7.37963394 -9.41267967 6.19364166 C-9.03515625 3.38095093 -9.03515625 3.38095093 -7.88854408 1.5109539 C-5.20960368 -0.1223851 -3.12816282 0.00321803 0 0 Z M7.96484375 16.38095093 C7.96484375 59.61095093 7.96484375 102.84095093 7.96484375 147.38095093 C48.22484375 147.38095093 88.48484375 147.38095093 129.96484375 147.38095093 C129.96484375 104.15095093 129.96484375 60.92095093 129.96484375 16.38095093 C89.70484375 16.38095093 49.44484375 16.38095093 7.96484375 16.38095093 Z " fill="#9D9E9D" transform="translate(485.03515625,51.619049072265625)"/>
<path d="M0 0 C1.24660149 -0.00744736 1.24660149 -0.00744736 2.51838684 -0.01504517 C5.27553121 -0.0296838 8.03261803 -0.03647196 10.78979492 -0.04199219 C12.70309959 -0.04774268 14.61640424 -0.05350042 16.52970886 -0.05926514 C20.54552479 -0.06978027 24.56132067 -0.07561944 28.57714844 -0.07910156 C33.7221177 -0.08458433 38.86682205 -0.10860557 44.01170826 -0.13707352 C47.96568067 -0.15570166 51.91958933 -0.16090561 55.87360191 -0.16243744 C57.77021418 -0.1654646 59.6668253 -0.17349527 61.56339455 -0.18662262 C64.21824882 -0.20368518 66.87245683 -0.2018023 69.52734375 -0.1953125 C70.31038879 -0.20452728 71.09343384 -0.21374207 71.90020752 -0.22323608 C76.42566202 -0.18859763 79.37320953 0.32991663 82.95776367 3.16113281 C84.97932914 6.89973306 85.6431443 10.95027222 86.45776367 15.09863281 C86.69495117 16.28328125 86.93213867 17.46792969 87.17651367 18.68847656 C88.07121593 23.56092184 88.72498809 28.46681751 89.41333008 33.37182617 C90.32993406 39.75147208 91.36392985 46.11169384 92.39526367 52.47363281 C92.61559387 53.84219831 92.83588977 55.21076932 93.05615234 56.5793457 C94.41523612 64.99273038 95.85754712 73.38377105 97.47729492 81.75097656 C98.16885831 86.65938988 98.7344911 91.11719101 96.9309082 95.86328125 C94.95776367 98.16113281 94.95776367 98.16113281 91.47802734 98.78881836 C90.02752756 98.81671889 88.57636231 98.81787693 87.12573242 98.79785156 C85.95552299 98.8121949 85.95552299 98.8121949 84.76167297 98.826828 C83.08997723 98.84526495 81.41813396 98.85288878 79.74633789 98.85076904 C75.40341548 98.84720225 71.06178479 98.92608016 66.71948242 98.99316406 C65.86687836 99.00412109 65.01427429 99.01507813 64.13583374 99.02636719 C47.09147485 99.26779397 28.14381417 99.69198927 12.95776367 108.16113281 C12.29776367 108.16113281 11.63776367 108.16113281 10.95776367 108.16113281 C10.9588916 106.95166992 10.96001953 105.74220703 10.96118164 104.49609375 C10.95747627 99.95559217 10.91437223 95.41613184 10.86010742 90.87597656 C10.84207703 88.92096724 10.83435509 86.96583188 10.83764648 85.01074219 C10.85039328 72.54437188 10.75371084 62.31477275 2.40576172 52.29907227 C-0.90780891 49.10718224 -4.59903676 47.36044725 -8.78051758 45.50097656 C-9.76705322 45.06003662 -10.75358887 44.61909668 -11.77001953 44.16479492 C-12.89476685 43.66798218 -12.89476685 43.66798218 -14.04223633 43.16113281 C-14.14131761 37.98337352 -14.21380439 32.80616934 -14.26196289 27.62768555 C-14.28204419 25.86717106 -14.30931512 24.10672299 -14.34399414 22.34643555 C-14.39266745 19.81184479 -14.41523938 17.27813786 -14.43286133 14.74316406 C-14.45350647 13.95964066 -14.47415161 13.17611725 -14.49542236 12.36885071 C-14.49696826 8.5804542 -14.20254495 6.41212501 -12.14282227 3.18725586 C-8.37310042 -0.44883451 -4.98398436 0.00706028 0 0 Z " fill="#F7F2D5" transform="translate(253.042236328125,331.8388671875)"/>
<path d="M0 0 C15.96810342 -0.07006716 31.93615701 -0.12297687 47.90437698 -0.15543652 C55.3186278 -0.17090839 62.73278313 -0.19200395 70.14697266 -0.22631836 C76.60884659 -0.25621101 83.07065138 -0.27557267 89.53259254 -0.28226548 C92.95447585 -0.28617801 96.37616133 -0.29537937 99.79798126 -0.31719017 C103.61706905 -0.33888709 107.43574357 -0.34197009 111.25488281 -0.34057617 C112.39064255 -0.351362 113.52640228 -0.36214783 114.69657898 -0.3732605 C115.73701859 -0.36913651 116.77745819 -0.36501251 117.84942627 -0.36076355 C118.75278339 -0.36352893 119.65614052 -0.36629431 120.5868721 -0.36914349 C123.53570461 0.08194836 124.89983801 0.89587545 127 3 C127.35149886 5.83880012 127.46985818 8.23922099 127.375 11.0625 C127.37371094 11.79533203 127.37242187 12.52816406 127.37109375 13.28320312 C127.28125 18.71875 127.28125 18.71875 125 21 C123.02 21 121.04 21 119 21 C119 25.62 119 30.24 119 35 C117.68 35.33 116.36 35.66 115 36 C115.00184359 36.65783415 115.00368717 37.3156683 115.00558662 37.99343681 C115.04971248 53.98353582 115.08283061 69.97361372 115.10362434 85.96375847 C115.11394673 93.69640155 115.12802538 101.42900405 115.15087891 109.16162109 C115.1707834 115.89961591 115.18370943 122.63758135 115.18817699 129.37560475 C115.19078938 132.94492741 115.19694944 136.51416599 115.21146011 140.08346176 C115.22750932 144.06330722 115.22798158 148.04306963 115.22705078 152.02294922 C115.23424133 153.2126532 115.24143188 154.40235718 115.24884033 155.62811279 C115.246091 156.70787384 115.24334167 157.78763489 115.24050903 158.90011597 C115.24235262 159.8421884 115.24419621 160.78426083 115.24609566 161.75488091 C115 164 115 164 113 166 C110.72265625 166.30078125 110.72265625 166.30078125 108.0625 166.3125 C107.18722656 166.32925781 106.31195312 166.34601563 105.41015625 166.36328125 C102.47708296 165.92118106 101.80556264 165.30759355 100 163 C99.51429749 160.81175232 99.51429749 160.81175232 99.35571289 158.22045898 C99.25507538 156.74835968 99.25507538 156.74835968 99.15240479 155.246521 C99.09308777 154.17388 99.03377075 153.10123901 98.97265625 151.99609375 C98.89891785 150.87019836 98.82517944 149.74430298 98.74920654 148.58428955 C98.50806483 144.86936436 98.28558202 141.15354946 98.0625 137.4375 C97.72972668 132.23399644 97.38765557 127.03110941 97.046875 121.828125 C96.96079111 120.49326653 96.87479788 119.15840221 96.78889465 117.8235321 C95.87785797 103.74470795 94.73384954 89.68632264 93.55618286 75.62765503 C93.39081411 73.65126669 93.22666788 71.67477565 93.06378174 69.69818115 C92.91910244 67.94301588 92.77194185 66.18805126 92.62103271 64.43341064 C91.84172312 54.95916261 91.47558221 45.51164426 91 36 C71.2 36 51.4 36 31 36 C31 39.63 31 43.26 31 47 C30.79584389 50.72161389 30.56238465 54.42818669 30.28149414 58.14355469 C30.20507187 59.19705612 30.1286496 60.25055756 30.0499115 61.33598328 C29.79892357 64.78158138 29.5421868 68.22672281 29.28515625 71.671875 C29.10790853 74.08317025 28.93094679 76.49448654 28.7542572 78.90582275 C28.38433862 83.94244991 28.01169539 88.97886548 27.63696289 94.01513672 C27.15732035 100.46293929 26.68338643 106.91114566 26.21134281 113.35950851 C25.84690435 118.33192782 25.48001705 123.304164 25.1123333 128.2763443 C24.93668942 130.65410023 24.76167161 133.03190251 24.58729744 135.40975189 C24.34323221 138.731359 24.09600721 142.05271608 23.84790039 145.37402344 C23.77668976 146.35080551 23.70547913 147.32758759 23.6321106 148.33396912 C22.56906976 162.43093024 22.56906976 162.43093024 20 165 C17.46875 165.30078125 17.46875 165.30078125 14.5 165.3125 C13.5203125 165.32925781 12.540625 165.34601563 11.53125 165.36328125 C10.6959375 165.24339844 9.860625 165.12351562 9 165 C5.60315445 159.90473167 6.6728672 153.85688828 6.6875 147.875 C6.67138672 146.58078125 6.65527344 145.2865625 6.63867188 143.953125 C6.63802734 142.68726563 6.63738281 141.42140625 6.63671875 140.1171875 C6.63224731 138.39411377 6.63224731 138.39411377 6.62768555 136.63623047 C6.94259839 133.56061608 7.41216601 131.73220633 8.49603271 128.93284607 C10.27326761 123.71970193 10.44370408 118.90915008 10.43579102 113.43823242 C10.44586685 112.42231522 10.45594269 111.40639801 10.46632385 110.35969543 C10.49465551 107.02483909 10.50067288 103.69043771 10.50390625 100.35546875 C10.51355727 98.02053141 10.52365048 95.68559585 10.53416443 93.35066223 C10.55208861 88.46444496 10.55768923 83.57838648 10.5559082 78.69213867 C10.5556035 72.45477572 10.59656303 66.21843854 10.64822483 59.98131847 C10.68170622 55.16062309 10.68766216 50.34017265 10.68607903 45.51937294 C10.689601 43.22102637 10.70276803 40.92267222 10.72607613 38.62444115 C11.21110323 21.30576216 11.21110323 21.30576216 4 6 C3.27386002 5.28333664 2.54772003 4.56667328 1.79957581 3.82829285 C0 2 0 2 0 0 Z " fill="#BE8441" transform="translate(607,380)"/>
<path d="M0 0 C19.8 0 39.6 0 60 0 C60.69152654 3.4576327 61.1825488 6.4785488 61.41723633 9.9465332 C61.48447403 10.91409546 61.55171173 11.88165771 61.62098694 12.87854004 C61.69063156 13.92537964 61.76027618 14.97221924 61.83203125 16.05078125 C61.99052465 18.34025309 62.14905491 20.62972238 62.30761719 22.91918945 C62.38991577 24.12499664 62.47221436 25.33080383 62.55700684 26.57315063 C64.08951666 49.002673 65.79587476 71.4098091 67.78051758 93.80395508 C67.86261978 94.75016724 67.94472198 95.69637939 68.02931213 96.67126465 C68.1795901 98.40306612 68.33350714 100.13455857 68.49229431 101.86560059 C69.01898374 107.97959461 69 113.79806508 69 120 C43.59 120 18.18 120 -8 120 C-8 112.19361752 -7.96664763 104.62919053 -7.37329102 96.88623047 C-7.30662231 95.96565857 -7.23995361 95.04508667 -7.17126465 94.09661865 C-6.95333295 91.10312351 -6.72872934 88.11017226 -6.50390625 85.1171875 C-6.34897398 83.00980415 -6.19443497 80.90239186 -6.04026794 78.79495239 C-5.63554682 73.27850853 -5.22500604 67.76251243 -4.81335449 62.24658203 C-4.47939786 57.75807489 -4.1496893 53.26926045 -3.82019138 48.78042412 C-3.42458906 43.39256828 -3.0269825 38.00486105 -2.62890625 32.6171875 C-2.55406069 31.60319759 -2.47921513 30.58920769 -2.40210152 29.54449081 C-2.18783442 26.64790699 -1.97220315 23.75142809 -1.75610352 20.85498047 C-1.69424362 20.01728119 -1.63238373 19.17958191 -1.56864929 18.3164978 C-1.11036413 12.20265984 -0.55527389 6.1080128 0 0 Z " fill="#B9E3CD" transform="translate(638,416)"/>
<path d="M0 0 C1.4664949 -0.01051392 1.4664949 -0.01051392 2.96261597 -0.02124023 C6.19615031 -0.03885296 9.42881018 -0.02718456 12.66235352 -0.01367188 C14.9091051 -0.01636605 17.15585556 -0.02024785 19.40260315 -0.02526855 C24.11275324 -0.03116825 28.8226 -0.02258602 33.53271484 -0.00390625 C39.57007497 0.0188701 45.60672334 0.00577102 51.64405727 -0.01819611 C56.28434101 -0.03265234 60.92445612 -0.02804858 65.56474495 -0.01768494 C67.7906916 -0.01501651 70.01665355 -0.01829147 72.24258232 -0.02760315 C75.3548421 -0.03776404 78.46595092 -0.02227256 81.578125 0 C82.95837105 -0.01214539 82.95837105 -0.01214539 84.36650085 -0.02453613 C88.54394112 0.03083742 90.79014727 0.17334488 94.42529297 2.39355469 C96.81049846 5.02063252 96.98544295 6.28631351 96.98266602 9.79882812 C96.98459961 10.80558594 96.9865332 11.81234375 96.98852539 12.84960938 C96.96467773 13.89503906 96.94083008 14.94046875 96.91625977 16.01757812 C96.9272168 17.06300781 96.93817383 18.1084375 96.94946289 19.18554688 C96.87694199 26.73738975 96.87694199 26.73738975 94.80761719 29.82324219 C91.43940255 32.14892218 88.46880809 32.0207899 84.52563477 31.90820312 C83.40212616 31.89971344 83.40212616 31.89971344 82.25592041 31.89105225 C79.87120777 31.8687187 77.48801568 31.81853198 75.10375977 31.76757812 C73.48398985 31.74750903 71.86419631 31.72925897 70.24438477 31.71289062 C66.2802601 31.66886436 62.31726744 31.5998611 58.35375977 31.51757812 C58.63360739 34.08008596 58.92416419 36.64061671 59.22094727 39.20117188 C59.29853271 39.92187866 59.37611816 40.64258545 59.45605469 41.38513184 C60.51548663 50.34935916 64.15146884 56.39371891 71.19360352 62.08007812 C77.30870546 66.14944072 83.65814969 66.85749998 90.87329102 67.01367188 C94.18316357 67.68607118 95.24230374 68.91260635 97.35375977 71.51757812 C97.85546875 74.12719727 97.85546875 74.12719727 97.84985352 77.05273438 C97.85049805 78.10912109 97.85114258 79.16550781 97.85180664 80.25390625 C97.83182617 81.35154297 97.8118457 82.44917969 97.79125977 83.58007812 C97.79834961 84.68158203 97.80543945 85.78308594 97.81274414 86.91796875 C97.74883798 94.96522925 97.74883798 94.96522925 96.06030273 97.32592773 C93.06971271 99.41420669 89.56037856 99.04634576 86.04125977 99.01757812 C84.83663086 99.0089978 84.83663086 99.0089978 83.60766602 99.00024414 C70.75881315 98.62166187 59.4917721 93.4933629 50.29125977 84.50195312 C46.88167108 80.77981881 44.32730475 77.16121339 42.35375977 72.51757812 C41.9296582 73.15824219 41.50555664 73.79890625 41.06860352 74.45898438 C33.05766839 86.27291288 24.07087896 94.07163578 10.04125977 97.95507812 C5.56808764 98.71050947 1.00680377 98.78718685 -3.52124023 98.89257812 C-4.27187744 98.91892334 -5.02251465 98.94526855 -5.79589844 98.97241211 C-7.95092773 98.97851562 -7.95092773 98.97851562 -11.64624023 98.51757812 C-15.38982197 94.78044158 -15.08966665 91.21410029 -15.15405273 86.18554688 C-15.15147461 85.14011719 -15.14889648 84.0946875 -15.14624023 83.01757812 C-15.17459961 81.97214844 -15.20295898 80.92671875 -15.23217773 79.84960938 C-15.25160105 72.26480346 -15.25160105 72.26480346 -12.46264648 68.82226562 C-9.39484153 67.40111881 -7.44597534 67.11513131 -4.08374023 67.14257812 C3.85187585 66.72130468 11.82336664 63.70387166 17.35375977 57.76757812 C21.32706983 51.31094928 23.38582699 45.18907587 24.46704102 37.67773438 C24.63631104 36.52023682 24.80558105 35.36273926 24.97998047 34.17016602 C25.10332764 33.29481201 25.2266748 32.41945801 25.35375977 31.51757812 C24.27892334 31.53852539 23.20408691 31.55947266 22.09667969 31.58105469 C18.11048698 31.65343186 14.12435238 31.69936904 10.13769531 31.73730469 C8.41201004 31.75742551 6.68639299 31.78472561 4.9609375 31.81933594 C2.48103007 31.86783571 0.00202348 31.89054117 -2.47827148 31.90820312 C-3.25024368 31.92884827 -4.02221588 31.94949341 -4.81758118 31.97076416 C-10.11313898 31.97298466 -10.11313898 31.97298466 -12.62963867 29.82324219 C-14.57994678 25.39992091 -14.11600699 20.77545789 -14.08374023 16.01757812 C-14.1037207 14.97214844 -14.12370117 13.92671875 -14.14428711 12.84960938 C-14.14364258 11.84285156 -14.14299805 10.83609375 -14.14233398 9.79882812 C-14.14418701 8.88166016 -14.14604004 7.96449219 -14.14794922 7.01953125 C-12.6184808 -0.60771563 -6.36883959 -0.05591918 0 0 Z " fill="#020202" transform="translate(228.646240234375,591.482421875)"/>
<path d="M0 0 C0.78565842 -0.00525696 1.57131683 -0.01051392 2.38078308 -0.01593018 C4.97996858 -0.02914307 7.57854255 -0.02038775 10.17773438 -0.01025391 C11.982301 -0.01227428 13.78686684 -0.0151854 15.59143066 -0.01895142 C19.37434662 -0.02337651 23.15705013 -0.01693779 26.93994141 -0.00292969 C31.79255329 0.01416235 36.64466743 0.00432215 41.49726105 -0.01364708 C45.22385417 -0.02447994 48.950329 -0.02104088 52.67692566 -0.0132637 C54.46632445 -0.01126031 56.25573393 -0.01372582 58.04512024 -0.02070236 C60.5446931 -0.02830873 63.0434563 -0.01672461 65.54296875 0 C66.28487961 -0.00607269 67.02679047 -0.01214539 67.79118347 -0.0184021 C70.54362847 0.01577233 72.76664739 0.12542805 75.23323059 1.40922546 C76.91452759 4.61385271 76.66115938 7.90932664 76.61206055 11.43969727 C76.61242215 12.27268247 76.61278376 13.10566767 76.61315632 13.96389484 C76.61091625 16.66155808 76.58806677 19.35860028 76.56445312 22.05615234 C76.56004256 23.72106629 76.55698185 25.38598438 76.55529785 27.05090332 C76.53956593 33.2258935 76.49768231 39.40079464 76.45898438 45.57568359 C76.39710938 59.37380859 76.33523438 73.17193359 76.27148438 87.38818359 C47.56148437 87.38818359 18.85148438 87.38818359 -10.72851562 87.38818359 C-10.79039062 73.59005859 -10.85226562 59.79193359 -10.91601562 45.57568359 C-10.94332764 41.21760498 -10.97063965 36.85952637 -10.9987793 32.36938477 C-11.0123291 27.05090332 -11.0123291 27.05090332 -11.0148468 24.5617218 C-11.019456 22.82183024 -11.0300123 21.08194832 -11.04524231 19.34211731 C-11.06715117 16.70780772 -11.0702354 14.07408409 -11.0690918 11.43969727 C-11.07988612 10.66354915 -11.09068045 9.88740103 -11.10180187 9.08773327 C-11.08528804 6.25273813 -11.02282497 3.94915036 -9.69026184 1.40922546 C-6.57705867 -0.21112215 -3.42654591 -0.02804698 0 0 Z " fill="#B2C7BC" transform="translate(520.728515625,91.61181640625)"/>
<path d="M0 0 C1.19463867 -0.00630432 2.38927734 -0.01260864 3.62011719 -0.019104 C4.91594727 -0.01505554 6.21177734 -0.01100708 7.546875 -0.00683594 C8.88444082 -0.00818272 10.22200617 -0.01012336 11.55957031 -0.01263428 C14.36397966 -0.01558494 17.16826169 -0.01128987 19.97265625 -0.00195312 C23.57092422 0.00944153 27.16889386 0.00288172 30.76715088 -0.00909805 C33.52948258 -0.0163183 36.29174333 -0.014028 39.05407715 -0.00884247 C41.02726433 -0.00685568 43.00045426 -0.01293935 44.97363281 -0.019104 C46.16827148 -0.01279968 47.36291016 -0.00649536 48.59375 0 C50.17687988 0.00238678 50.17687988 0.00238678 51.79199219 0.00482178 C54.296875 0.25878906 54.296875 0.25878906 56.296875 2.25878906 C57.02055053 4.81743869 57.64475045 7.3373317 58.21484375 9.93066406 C58.39304657 10.71294876 58.57124939 11.49523346 58.75485229 12.30122375 C59.33824273 14.86890907 59.91143164 17.43875428 60.484375 20.00878906 C61.08476461 22.66899151 61.68729693 25.32870333 62.2898407 27.98841858 C62.69693444 29.78666344 63.10310723 31.58511702 63.50837708 33.3837738 C64.78354332 39.0349116 66.09561875 44.67579095 67.4453125 50.30957031 C67.60995499 50.99987335 67.77459747 51.69017639 67.94422913 52.40139771 C68.71104562 55.61624815 69.48306418 58.82965926 70.2644043 62.04101562 C70.53422119 63.17635742 70.80403809 64.31169922 71.08203125 65.48144531 C71.31801025 66.45863525 71.55398926 67.4358252 71.79711914 68.44262695 C72.32817308 71.43515609 72.3841423 74.22575938 72.296875 77.25878906 C69.97798925 78.31741082 67.66010622 79.30663944 65.296875 80.25878906 C64.66575806 80.52551926 64.03464111 80.79224945 63.38439941 81.06706238 C54.52674433 84.27236095 45.29805412 83.6732326 36.015625 83.62207031 C34.15140788 83.62155098 32.28719021 83.6220715 30.42297363 83.62358093 C26.53645544 83.62349165 22.65014661 83.61314588 18.76367188 83.5949707 C13.77560526 83.57215818 8.78784061 83.57176692 3.79973602 83.57848835 C-0.04002585 83.58182197 -3.87971842 83.57521184 -7.71946716 83.56535912 C-9.55992776 83.5615058 -11.40039604 83.56035944 -13.24085999 83.56194496 C-15.80200057 83.56231429 -18.36274663 83.54973729 -20.92382812 83.53344727 C-22.06766968 83.53716339 -22.06766968 83.53716339 -23.23461914 83.54095459 C-28.47436664 83.48754743 -28.47436664 83.48754743 -30.703125 81.25878906 C-30.47198485 74.80046145 -27.81027924 68.3760478 -25.7277832 62.33642578 C-24.07412182 57.5000775 -22.65725619 52.63087958 -21.328125 47.69628906 C-19.18947742 39.78570374 -16.75265844 31.99100559 -14.23022461 24.19506836 C-12.15216217 17.75141508 -10.25797696 11.28981277 -8.52734375 4.74316406 C-6.91061 -0.13002392 -4.71002597 0.00710099 0 0 Z " fill="#EEFEE2" transform="translate(642.703125,231.7412109375)"/>
<path d="M0 0 C23.43 0 46.86 0 71 0 C71 30.03 71 60.06 71 91 C47.57 91 24.14 91 0 91 C0 60.97 0 30.94 0 0 Z " fill="#E6FFFD" transform="translate(292,151)"/>
<path d="M0 0 C23.1 0 46.2 0 70 0 C70 30.03 70 60.06 70 91 C46.9 91 23.8 91 0 91 C0 60.97 0 30.94 0 0 Z " fill="#E5FEFC" transform="translate(200,151)"/>
<path d="M0 0 C0.01458252 1.06847168 0.02916504 2.13694336 0.04418945 3.23779297 C0.10266075 7.24511289 0.17988541 11.25189922 0.26245117 15.25878906 C0.29547286 16.9849372 0.32357375 18.71118741 0.34643555 20.4375 C0.44192605 32.9380862 0.44192605 32.9380862 3.33862305 45.02587891 C5.03204314 50.08050972 4.22862947 55.75267483 4 61 C3.95746094 62.26457031 3.91492188 63.52914062 3.87109375 64.83203125 C3.32609912 75.90585823 3.32609912 75.90585823 0 80 C-3.1186676 80.61473083 -3.1186676 80.61473083 -7.01000977 80.59936523 C-8.07386398 80.60527931 -8.07386398 80.60527931 -9.15921021 80.61131287 C-11.50399361 80.61802713 -13.84683128 80.58885826 -16.19140625 80.55859375 C-17.81900149 80.55434425 -19.44660278 80.55201515 -21.07420349 80.55152893 C-24.4848884 80.54536116 -27.89491716 80.52264918 -31.30541992 80.48706055 C-35.68278019 80.44175153 -40.0595464 80.42703306 -44.43711948 80.42332363 C-47.79739775 80.41890055 -51.15755065 80.40360714 -54.51777458 80.3844471 C-56.13215031 80.37555246 -57.74653947 80.36882851 -59.3609333 80.36428642 C-61.61398063 80.35526888 -63.86648404 80.33290176 -66.11938477 80.30639648 C-67.40273209 80.29575668 -68.68607941 80.28511688 -70.00831604 80.27415466 C-73 80 -73 80 -75 78 C-75.44433085 75.5401439 -75.77584778 73.15625734 -76.03515625 70.67578125 C-76.11873886 69.93732468 -76.20232147 69.1988681 -76.28843689 68.43803406 C-76.46470612 66.86563819 -76.63674942 65.29276381 -76.80493164 63.71948242 C-77.05678455 61.36591105 -77.32105079 59.01402331 -77.58789062 56.66210938 C-78.53122986 48.20876184 -79.25871211 39.77545585 -79.77856445 31.28491211 C-80.11343358 26.31725596 -80.71069245 21.3945488 -81.33789062 16.45703125 C-81.7886522 12.69503616 -82.04767667 9.02356634 -82.02514648 5.23193359 C-82.02151596 4.43532318 -82.01788544 3.63871277 -82.0141449 2.81796265 C-82.00947708 2.21803497 -82.00480927 1.6181073 -82 1 C-54.6640014 0.36861383 -27.34424057 -0.19271123 0 0 Z " fill="#B77C4E" transform="translate(196,466)"/>
<path d="M0 0 C20.39559499 0 36.82450855 8.30042353 51.3984375 22.3046875 C70.48409385 42.17200896 71 63.89388624 71 91 C47.57 91 24.14 91 0 91 C0 60.97 0 30.94 0 0 Z " fill="#E5FEFC" transform="translate(292,36)"/>
<path d="M0 0 C0 30.03 0 60.06 0 91 C-23.1 91 -46.2 91 -70 91 C-70 61.27221375 -68.91355273 41.59597378 -48.5390625 20.4453125 C-37.79360289 10.07799224 -26.45437038 4.37522897 -12 1 C-11.37351562 0.80277344 -10.74703125 0.60554688 -10.1015625 0.40234375 C-6.79181546 -0.23130671 -3.36985732 0 0 0 Z " fill="#E5FEFC" transform="translate(270,36)"/>
<path d="M0 0 C18.35562133 5.280732 32.80368164 19.97698182 42.03173828 36.21923828 C50.44228746 51.68735368 55.15508151 69.19007843 55.25 86.75 C55.270625 87.6884375 55.29125 88.626875 55.3125 89.59375 C55.35689217 97.62873256 54.57735259 105.61933745 48.9375 111.75 C45.94108806 113.94862511 43.92483105 114.35407177 40.25 113.875 C23.62457051 109.17158803 10.26041158 91.48765692 1.87011719 77.05664062 C-8.89379999 57.63749886 -17.5754864 32.06452668 -12.203125 9.6796875 C-9.6716306 3.0004369 -7.68931377 -0.75850197 0 0 Z " fill="#52A87C" transform="translate(105,206)"/>
<path d="M0 0 C3.125 1.8125 3.125 1.8125 4.5625 3.9375 C8.12519786 22.14684464 -3.16736894 43.52302649 -13.02734375 58.32421875 C-16.33624456 62.78039173 -20.04537933 66.80347368 -23.875 70.8125 C-24.68517578 71.73482422 -24.68517578 71.73482422 -25.51171875 72.67578125 C-34.06596627 82.04882325 -45.96832093 88.08596559 -57.9375 91.75 C-62.22805077 91.84128831 -66.16654957 91.01734235 -69.875 88.8125 C-75.8474488 81.72021705 -74.35744993 73.53405465 -73.625 64.84765625 C-70.60998348 43.45988283 -55.74660816 26.9866765 -39.29321289 14.48876953 C-13.27450662 -4.85719993 -13.27450662 -4.85719993 0 0 Z " fill="#52A87C" transform="translate(235.875,242.1875)"/>
<path d="M0 0 C1.09248047 -0.00515625 2.18496094 -0.0103125 3.31054688 -0.015625 C4.44685547 -0.00015625 5.58316406 0.0153125 6.75390625 0.03125 C8.45256836 0.00804687 8.45256836 0.00804687 10.18554688 -0.015625 C11.82620117 -0.00789062 11.82620117 -0.00789062 13.5 0 C14.49572021 0.00451172 15.49144043 0.00902344 16.51733398 0.01367188 C20.26776513 0.70716634 21.70866281 1.72790897 24.31640625 4.53125 C25.06434891 7.58714532 24.98935671 10.58528374 24.94750977 13.71850586 C24.95466507 14.64740128 24.96182037 15.57629669 24.9691925 16.53334045 C24.9861048 19.60475813 24.96666027 22.67472127 24.9453125 25.74609375 C24.94614103 27.88074362 24.94859982 30.01539343 24.95262146 32.15003967 C24.9554813 36.6248799 24.94076097 41.09922013 24.91333008 45.57397461 C24.87926803 51.30870221 24.88525712 57.04253436 24.90399265 62.77730465 C24.91456464 67.185994 24.90562257 71.59447522 24.89060783 76.00314522 C24.88542566 78.11744125 24.88590824 80.23175901 24.89215279 82.34605217 C24.89760642 85.30270939 24.87722373 88.25808807 24.84985352 91.21459961 C24.85637939 92.08800995 24.86290527 92.96142029 24.86962891 93.86129761 C24.80579231 97.91917822 24.61827053 100.03751474 22.45664978 103.57310486 C19.66921408 106.1233771 18.12272297 106.17506627 14.37890625 106.1953125 C13.23679687 106.20175781 12.0946875 106.20820312 10.91796875 106.21484375 C9.13519531 106.18583984 9.13519531 106.18583984 7.31640625 106.15625 C6.12789063 106.17558594 4.939375 106.19492187 3.71484375 106.21484375 C2.57273437 106.20839844 1.430625 106.20195313 0.25390625 106.1953125 C-1.31037109 106.18685303 -1.31037109 106.18685303 -2.90625 106.17822266 C-5.68359375 105.53125 -5.68359375 105.53125 -7.8248291 103.57310486 C-10.38707498 99.38000808 -10.24589971 96.03936435 -10.20117188 91.21459961 C-10.20818115 90.28395187 -10.21519043 89.35330414 -10.22241211 88.39445496 C-10.23999123 85.32386276 -10.22837037 82.25419501 -10.21484375 79.18359375 C-10.21753845 77.04797692 -10.22142069 74.91236129 -10.22644043 72.77674866 C-10.23233518 68.30376489 -10.22377217 63.83110087 -10.20507812 59.3581543 C-10.18227504 53.62226165 -10.19542076 47.88711708 -10.21936798 42.15125179 C-10.23381463 37.74262341 -10.22922536 33.33417272 -10.21885681 28.92553902 C-10.21618712 26.81040928 -10.21946778 24.69526345 -10.22877502 22.58015251 C-10.23892326 19.62583472 -10.22346394 16.67273296 -10.20117188 13.71850586 C-10.2092688 12.84307129 -10.21736572 11.96763672 -10.22570801 11.06567383 C-10.14302792 5.1572585 -10.14302792 5.1572585 -7.81809998 1.98939514 C-5.06678966 0.10989265 -3.31853089 0.01505368 0 0 Z " fill="#050505" transform="translate(358.68359375,586.46875)"/>
<path d="M0 0 C1.0528418 -0.02320313 1.0528418 -0.02320313 2.12695312 -0.046875 C7.23519381 -0.00864682 10.12240442 1.32927219 14.0625 4.5 C20.41305258 11.36546224 19.41846509 19.20850031 19.17956543 28.04400635 C18.86557815 34.63135476 17.9487569 41.16168483 17.03613281 47.68823242 C16.68266239 50.22217971 16.34800046 52.75812937 16.015625 55.29492188 C15.79534767 56.92983295 15.57403268 58.56460463 15.3515625 60.19921875 C15.20299301 61.31957771 15.20299301 61.31957771 15.05142212 62.46257019 C14.44006865 66.77749371 13.4639629 70.2956113 12.0625 74.5 C-1.4675 74.5 -14.9975 74.5 -28.9375 74.5 C-27.9475 68.56 -27.9475 68.56 -26.9375 62.5 C-23.88071529 43.0934816 -22.20320529 24.14844789 -21.9375 4.5 C-14.58727916 2.008544 -7.80360673 -0.17887924 0 0 Z " fill="#FBFBFB" transform="translate(515.9375,623.5)"/>
<path d="M0 0 C94.38 0 188.76 0 286 0 C286 3.3 286 6.6 286 10 C191.62 10 97.24 10 0 10 C0 6.7 0 3.4 0 0 Z " fill="#C8C19E" transform="translate(264,483)"/>
<path d="M0 0 C12.99011318 -0.36649222 25.43484158 3.10152348 35.4296875 11.6171875 C41.12060569 17.11922962 44.91519805 23.17557574 48.6796875 30.1171875 C49.11152344 30.89578125 49.54335937 31.674375 49.98828125 32.4765625 C54.71338613 41.40752996 54.92719304 49.20321556 54.6796875 59.1171875 C48.89837488 62.52598032 42.09957003 61.830039 35.71875 60.5 C22.95662464 56.6337261 12.00605396 49.55420576 2.6796875 40.1171875 C1.89851563 39.35792969 1.11734375 38.59867187 0.3125 37.81640625 C-6.88102535 30.41700559 -13.53272576 20.20546813 -14.6953125 9.7421875 C-14.3203125 6.1171875 -14.3203125 6.1171875 -12.2578125 3.2421875 C-8.15424933 0.27365244 -4.94624006 0.2498101 0 0 Z " fill="#52A87C" transform="translate(87.3203125,313.8828125)"/>
<path d="M0 0 C105.93 0 211.86 0 321 0 C321 2.31 321 4.62 321 7 C215.07 7 109.14 7 0 7 C0 4.69 0 2.38 0 0 Z " fill="#B9E4CE" transform="translate(247,529)"/>
<path d="M0 0 C2.49552139 2.0244453 4.71797685 4.24206067 6.9375 6.5625 C7.54013672 7.17730225 8.14277344 7.79210449 8.76367188 8.42553711 C13.17168483 12.9802874 17.16379407 17.76216084 21.1171875 22.71484375 C24.43479319 26.74139838 27.24745058 29.3596454 32.25 31.1875 C39.2761416 30.83619292 44.52914728 26.10313954 50 22 C50 26.95 50 31.9 50 37 C21.29 37 -7.42 37 -37 37 C-37 26.44 -37 15.88 -37 5 C-24.81798537 -3.12134308 -13.43543695 -8.59730434 0 0 Z " fill="#6B8A7F" transform="translate(547,142)"/>
<path d="M0 0 C6.6 0 13.2 0 20 0 C20.06943426 7.42717752 19.84126486 14.73940916 19.28149414 22.14355469 C19.20507187 23.19705612 19.1286496 24.25055756 19.0499115 25.33598328 C18.79892357 28.78158138 18.5421868 32.22672281 18.28515625 35.671875 C18.10790853 38.08317025 17.93094679 40.49448654 17.7542572 42.90582275 C17.38433862 47.94244991 17.01169539 52.97886548 16.63696289 58.01513672 C16.15732035 64.46293929 15.68338643 70.91114566 15.21134281 77.35950851 C14.84690435 82.33192782 14.48001705 87.304164 14.1123333 92.2763443 C13.93668942 94.65410023 13.76167161 97.03190251 13.58729744 99.40975189 C13.34323221 102.731359 13.09600721 106.05271608 12.84790039 109.37402344 C12.77668976 110.35080551 12.70547913 111.32758759 12.6321106 112.33396912 C11.56906976 126.43093024 11.56906976 126.43093024 9 129 C6.46875 129.30078125 6.46875 129.30078125 3.5 129.3125 C2.5203125 129.32925781 1.540625 129.34601563 0.53125 129.36328125 C-0.3040625 129.24339844 -1.139375 129.12351562 -2 129 C-5.39684555 123.90473167 -4.3271328 117.85688828 -4.3125 111.875 C-4.32861328 110.58078125 -4.34472656 109.2865625 -4.36132812 107.953125 C-4.36197266 106.68726563 -4.36261719 105.42140625 -4.36328125 104.1171875 C-4.36626221 102.96847168 -4.36924316 101.81975586 -4.37231445 100.63623047 C-4.05732949 97.55991174 -3.57383924 95.65716766 -2.50375366 92.84147644 C-0.8872454 88.10467529 -0.55859573 83.87492391 -0.56762695 78.90014648 C-0.5574353 78.04051804 -0.54724365 77.18088959 -0.53674316 76.29521179 C-0.50683264 73.48710426 -0.49738109 70.67933904 -0.48828125 67.87109375 C-0.47141826 65.91096381 -0.45326586 63.95084457 -0.43388367 61.99073792 C-0.38655349 56.85671332 -0.35663449 51.72273216 -0.33044434 46.58856201 C-0.30055283 41.33955309 -0.25405214 36.09069355 -0.20898438 30.84179688 C-0.12314447 20.56125924 -0.05725051 10.28073664 0 0 Z " fill="#BE8440" transform="translate(618,416)"/>
<path d="M0 0 C0.33 0 0.66 0 1 0 C1 9.57 1 19.14 1 29 C1.66 29 2.32 29 3 29 C3.2475 28.319375 3.495 27.63875 3.75 26.9375 C5.24197908 23.43134917 7.06835511 20.28379632 9 17 C13.95 17.99 13.95 17.99 19 19 C17.48482899 24.34297144 15.8380083 29.44290282 13.6875 34.5625 C9.5737575 44.97814591 7.4030848 56.08782863 5 67 C4.71733276 68.13538208 4.71733276 68.13538208 4.42895508 69.29370117 C3.81980355 73.13686831 3.87744928 76.91610314 3.90234375 80.80078125 C3.90446617 82.0553437 3.90446617 82.0553437 3.90663147 83.33525085 C3.91220816 85.994371 3.92475635 88.6534055 3.9375 91.3125 C3.94251801 93.12044149 3.94708039 94.9283843 3.95117188 96.73632812 C3.96216996 101.15758484 3.9794185 105.57877793 4 110 C-0.62 110 -5.24 110 -10 110 C-10.02578125 108.73027344 -10.0515625 107.46054687 -10.078125 106.15234375 C-10.55930273 89.66355773 -14.0805202 75.96914131 -21 61 C-18.36 60.34 -15.72 59.68 -13 59 C-12.01 60.65 -11.02 62.3 -10 64 C-9.67 44.86 -9.34 25.72 -9 6 C-7.02 5.01 -5.04 4.02 -3 3 C-1.24850835 1.41754725 -1.24850835 1.41754725 0 0 Z " fill="#7B5B49" transform="translate(156,314)"/>
<path d="M0 0 C0 11.22 0 22.44 0 34 C3.63 34 7.26 34 11 34 C15.77609562 35.70574843 16.87313473 36.83084631 20 41 C20 44.3 20 47.6 20 51 C-0.13 51 -20.26 51 -41 51 C-41 41 -41 41 -39.4375 37.375 C-36 35 -36 35 -21 35 C-21 24.44 -21 13.88 -21 3 C-13.43058709 0.8373106 -7.86147183 0 0 0 Z " fill="#EEF3C5" transform="translate(678,329)"/>
<path d="M0 0 C0.02685412 2.31243792 0.04632841 4.6249627 0.0625 6.9375 C0.07410156 8.22527344 0.08570313 9.51304687 0.09765625 10.83984375 C0 14 0 14 -1 15 C-2.39143689 15.09543095 -3.78768367 15.12188575 -5.18238831 15.12025452 C-6.53492203 15.12231651 -6.53492203 15.12231651 -7.91477966 15.12442017 C-8.91171341 15.12082489 -9.90864716 15.11722961 -10.93579102 15.11352539 C-11.97956909 15.11367142 -13.02334717 15.11381744 -14.09875488 15.1139679 C-17.56715943 15.11326826 -21.03551103 15.10547353 -24.50390625 15.09765625 C-26.90144318 15.09579225 -29.2989805 15.09436826 -31.69651794 15.09336853 C-38.02095584 15.08954194 -44.34537094 15.07971046 -50.6697998 15.06866455 C-57.11775402 15.05845345 -63.56571191 15.05387156 -70.01367188 15.04882812 C-82.67579129 15.03808832 -95.33789375 15.02101021 -108 15 C-108 10.38 -108 5.76 -108 1 C-94.06620363 0.86956153 -80.13240679 0.73917283 -66.19860935 0.60884857 C-59.72932983 0.54833914 -53.26005047 0.48781224 -46.79077148 0.42724609 C-40.55329869 0.36885077 -34.31582548 0.31050046 -28.07835197 0.25218201 C-25.6927991 0.22986979 -23.30724637 0.20754106 -20.9216938 0.18519592 C-17.59305994 0.15401984 -14.26442555 0.12290126 -10.93579102 0.09179688 C-9.93885727 0.08244614 -8.94192352 0.0730954 -7.91477966 0.0634613 C-7.01309052 0.05504715 -6.11140137 0.046633 -5.18238831 0.03796387 C-4.3942553 0.03058952 -3.6061223 0.02321518 -2.79410648 0.01561737 C-1.86275839 0.00751015 -0.93138338 0 0 0 Z " fill="#D89443" transform="translate(726,401)"/>
<path d="M0 0 C2.34456522 2.91731266 3.94212231 5.78354927 5.4609375 9.19921875 C5.92588623 10.23151611 6.39083496 11.26381348 6.86987305 12.32739258 C7.36656494 13.43622803 7.86325684 14.54506348 8.375 15.6875 C18.79942393 38.56728829 29.71489342 59.7134413 46 79 C47.66870698 80.9983062 49.33418815 82.99927843 51 85 C22.06736359 86.19388403 22.06736359 86.19388403 8 86 C8.495 85.175 8.99 84.35 9.5 83.5 C12.17469034 77.25905588 11.06949289 71.43080582 9.8125 64.9375 C8.23339761 56.50161452 6.85299941 48.03701469 5.5 39.5625 C3.80013491 28.87943197 3.80013491 28.87943197 2.01171875 18.2109375 C1.86992187 17.38650146 1.728125 16.56206543 1.58203125 15.71264648 C1.32983065 14.25827926 1.073704 12.80458385 0.8125 11.35180664 C0.14978606 7.52317179 -0.11370591 3.88395436 0 0 Z " fill="#B4AE89" transform="translate(339,345)"/>
<path d="M0 0 C27.06 0 54.12 0 82 0 C81 13 81 13 78 16 C74.85009766 16.38095093 74.85009766 16.38095093 70.9140625 16.38818359 C69.83798737 16.39606903 69.83798737 16.39606903 68.74017334 16.40411377 C66.36822758 16.41732045 63.99695262 16.40857376 61.625 16.3984375 C59.97737499 16.40045805 58.32975085 16.40336934 56.68212891 16.40713501 C53.22875454 16.41155925 49.77561294 16.40512421 46.32226562 16.39111328 C41.8933764 16.37402118 37.46503254 16.38386185 33.03616333 16.40183067 C29.63382856 16.4126659 26.23162331 16.40922341 22.82928467 16.4014473 C21.19618668 16.39944456 19.56307698 16.40190716 17.92999268 16.40888596 C15.64832362 16.41649634 13.36754048 16.40490309 11.0859375 16.38818359 C9.1376001 16.38460342 9.1376001 16.38460342 7.14990234 16.38095093 C4 16 4 16 1 13 C0.67 8.71 0.34 4.42 0 0 Z " fill="#F6F6F6" transform="translate(265,749)"/>
<path d="M0 0 C27.39 0 54.78 0 83 0 C83 2.97 83 5.94 83 9 C55.33397852 10.13588383 27.68524677 10.1080481 0 10 C0 6.7 0 3.4 0 0 Z " fill="#9B6943" transform="translate(113,457)"/>
<path d="M0 0 C8.25 0 16.5 0 25 0 C25.061875 3.238125 25.12375 6.47625 25.1875 9.8125 C25.21481201 10.82932861 25.24212402 11.84615723 25.27026367 12.89379883 C25.27775635 13.69841553 25.28524902 14.50303223 25.29296875 15.33203125 C25.3086792 16.15421143 25.32438965 16.9763916 25.34057617 17.82348633 C25 20 25 20 23.75317383 21.7668457 C21.56956987 23.30275764 20.31142165 23.38663424 17.65625 23.3984375 C16.82222656 23.40230469 15.98820313 23.40617188 15.12890625 23.41015625 C13.82759766 23.39275391 13.82759766 23.39275391 12.5 23.375 C11.63246094 23.38660156 10.76492188 23.39820313 9.87109375 23.41015625 C9.03707031 23.40628906 8.20304688 23.40242187 7.34375 23.3984375 C6.20196289 23.39336182 6.20196289 23.39336182 5.03710938 23.38818359 C2.40939216 22.88745608 1.53683351 22.17780774 0 20 C-0.34057617 17.82348633 -0.34057617 17.82348633 -0.29296875 15.33203125 C-0.28547607 14.52741455 -0.2779834 13.72279785 -0.27026367 12.89379883 C-0.24295166 11.87697021 -0.21563965 10.8601416 -0.1875 9.8125 C-0.125625 6.574375 -0.06375 3.33625 0 0 Z " fill="#8E6140" transform="translate(568,529)"/>
<path d="M0 0 C8.25 0 16.5 0 25 0 C25.061875 3.238125 25.12375 6.47625 25.1875 9.8125 C25.21481201 10.82932861 25.24212402 11.84615723 25.27026367 12.89379883 C25.27775635 13.69841553 25.28524902 14.50303223 25.29296875 15.33203125 C25.3086792 16.15421143 25.32438965 16.9763916 25.34057617 17.82348633 C25 20 25 20 23.75317383 21.7668457 C21.56956987 23.30275764 20.31142165 23.38663424 17.65625 23.3984375 C16.82222656 23.40230469 15.98820313 23.40617188 15.12890625 23.41015625 C13.82759766 23.39275391 13.82759766 23.39275391 12.5 23.375 C11.63246094 23.38660156 10.76492187 23.39820313 9.87109375 23.41015625 C9.03707031 23.40628906 8.20304688 23.40242187 7.34375 23.3984375 C6.20196289 23.39336182 6.20196289 23.39336182 5.03710938 23.38818359 C2.40939216 22.88745608 1.53683351 22.17780774 0 20 C-0.34057617 17.82348633 -0.34057617 17.82348633 -0.29296875 15.33203125 C-0.28547607 14.52741455 -0.2779834 13.72279785 -0.27026367 12.89379883 C-0.24295166 11.87697021 -0.21563965 10.8601416 -0.1875 9.8125 C-0.125625 6.574375 -0.06375 3.33625 0 0 Z " fill="#8E6140" transform="translate(222,529)"/>
<path d="M0 0 C2.71859002 1.35929501 2.90721107 3.10061522 3.85177612 5.86201477 C4.19198288 6.89324715 4.19198288 6.89324715 4.5390625 7.9453125 C4.78125519 8.65918625 5.02344788 9.37306 5.27297974 10.10856628 C6.06403912 12.44506436 6.84471369 14.78488438 7.625 17.125 C8.4338156 19.5284086 9.24471476 21.93110733 10.05578613 24.33375549 C10.59729121 25.93846429 11.13789822 27.54347641 11.6776123 29.14878845 C13.2641981 33.85954905 14.89189447 38.55162774 16.5703125 43.23046875 C16.94333496 44.27380371 17.31635742 45.31713867 17.70068359 46.39208984 C18.38148987 48.28687919 19.06892845 50.1793036 19.76416016 52.06884766 C22.70792947 60.32058618 22.70792947 60.32058618 22 65 C20.82202148 66.64306641 20.82202148 66.64306641 19 68 C16.45629883 68.34057617 16.45629883 68.34057617 13.45703125 68.29296875 C12.38388672 68.28330078 11.31074219 68.27363281 10.20507812 68.26367188 C9.08552734 68.23853516 7.96597656 68.21339844 6.8125 68.1875 C5.68134766 68.17396484 4.55019531 68.16042969 3.38476562 68.14648438 C0.58936683 68.11109958 -2.20507892 68.06172948 -5 68 C-4 66 -4 66 -0.40234375 64.7109375 C1.08358282 64.25782985 2.57200796 63.8128559 4.0625 63.375 C5.20041992 63.03082031 5.20041992 63.03082031 6.36132812 62.6796875 C8.23881812 62.11289807 10.11915633 61.55555923 12 61 C11.48806071 52.60370696 9.6669784 44.65755364 7.6875 36.5 C7.36955612 35.16710262 7.05242335 33.83401152 6.73608398 32.50073242 C6.11280592 29.8741936 5.48734516 27.24821791 4.86035156 24.62255859 C3.7291395 19.85952663 2.63202071 15.0897262 1.5625 10.3125 C1.39903076 9.59578125 1.23556152 8.8790625 1.06713867 8.140625 C0.44506185 5.35150287 0 2.86938064 0 0 Z " fill="#AFC5AA" transform="translate(702,248)"/>
<path d="M0 0 C6.93 0 13.86 0 21 0 C21 3.96 21 7.92 21 12 C18.8131784 12.48225331 16.62550745 12.96065583 14.4375 13.4375 C13.21933594 13.70433594 12.00117187 13.97117187 10.74609375 14.24609375 C7.18800572 14.9621636 3.59295025 15.48672139 0 16 C0 10.72 0 5.44 0 0 Z " fill="#B8BC9A" transform="translate(657,316)"/>
<path d="M0 0 C0.61875 0.70125 1.2375 1.4025 1.875 2.125 C7.04704109 7.29704109 13.94910692 11.14450182 21 13 C21 15.31 21 17.62 21 20 C13.41 20 5.82 20 -2 20 C-2 9.875 -2 9.875 -1 4.9375 C-0.814375 3.99777344 -0.62875 3.05804687 -0.4375 2.08984375 C-0.293125 1.40019531 -0.14875 0.71054687 0 0 Z " fill="#B8E2CB" transform="translate(201,516)"/>
<path d="M0 0 C0.33 0 0.66 0 1 0 C1 6.93 1 13.86 1 21 C-5.93 21 -12.86 21 -20 21 C-20.33 18.36 -20.66 15.72 -21 13 C-19.2984375 12.690625 -19.2984375 12.690625 -17.5625 12.375 C-10.22527458 10.53743555 -4.33736707 6.14460335 0 0 Z " fill="#B9E3CD" transform="translate(613,515)"/>
</svg>
